<?xml version="1.0" encoding="UTF-8"?>
<!DOCTYPE svg PUBLIC "-//W3C//DTD SVG 1.1//EN" "http://www.w3.org/Graphics/SVG/1.1/DTD/svg11.dtd">
<!-- Creator: CorelDRAW -->
<svg xmlns="http://www.w3.org/2000/svg" xml:space="preserve" width="16.9333mm" height="21.146mm" version="1.1" style="shape-rendering:geometricPrecision; text-rendering:geometricPrecision; image-rendering:optimizeQuality; fill-rule:evenodd; clip-rule:evenodd"
viewBox="0 0 86.49 108.01"
 xmlns:xlink="http://www.w3.org/1999/xlink"
 xmlns:xodm="http://www.corel.com/coreldraw/odm/2003">
 <defs>
  <style type="text/css">
   <![CDATA[
    .fil0 {fill:#FEFEFE}
   ]]>
  </style>
 </defs>
 <g id="Camada_x0020_1">
  <metadata id="CorelCorpID_0Corel-Layer"/>
  <g id="_2129833266208">
   <path class="fil0" d="M4.64 94.72l0 -81.43c0,-2.52 0.33,-4.47 1.44,-5.94 1.09,-1.45 3.12,-2.71 4.89,-2.71l46.41 0 0 16.45c0,4.71 2.3,8.44 6.75,8.44l17.72 0 0 65.18c0,3.29 -0.7,6.27 -3.44,7.74 -0.67,0.36 -1.97,0.91 -2.89,0.91l-64.55 0c-1.78,0 -3.68,-1.22 -4.8,-2.59 -1.18,-1.44 -1.53,-3.52 -1.53,-6.06zm57.59 -86.49l12.18 12.5c1.04,1.03 3.37,3.14 4.06,4.17 -2.74,0 -5.48,0 -8.23,0 -9.16,0 -8.02,1.26 -8.02,-8.44 0,-2.74 0,-5.49 0,-8.23zm-62.23 4.43l0 82.69c0,3.92 1.02,6.82 3,8.81 1.87,1.88 4.31,3.85 7.97,3.85l64.55 0c3.66,0 6.09,-1.96 7.97,-3.85 1.98,-1.99 3,-4.9 3,-8.81l0 -67.5c0,-1.58 -1.34,-2.93 -2.58,-4.17l-6.64 -6.86c-1.18,-1.22 -2.28,-2.27 -3.48,-3.48l-10.01 -10.24c-0.84,-1.01 -2.24,-3.1 -3.86,-3.1l-48.94 0c-3.66,0 -6.09,1.96 -7.97,3.85 -1.98,1.99 -3,4.9 -3,8.81z"/>
   <path class="fil0" d="M20.46 58.64c0,-4.47 3.3,-8.26 7.25,-9.83 2.62,-1.04 9.43,-0.94 12.08,-0.01 4.64,1.62 7.45,5.93 7.45,11.11l-26.79 0 0 -1.27zm-4.64 -0.63c0,3.32 -0.81,6.54 2.74,6.54l30.17 0c3.81,0 3.16,-2.63 3.16,-5.48 0,-8.55 -7.12,-15.61 -16.45,-15.61 -5.34,0 -10.33,0.03 -14.61,4.16 -1.36,1.31 -2.37,2.63 -3.31,4.28 -0.71,1.25 -1.69,4.16 -1.69,6.11z"/>
   <path class="fil0" d="M34.38 37.97c-2.21,0 -3.64,-0.35 -5.18,-1.78 -3.67,-3.4 -2.54,-11.51 4.97,-11.51 5.38,0 8.48,6.94 4.59,11.13 -0.87,0.94 -2.68,2.16 -4.38,2.16zm-1.48 4.64c3.89,0 6.29,-0.68 8.92,-3.32 7.6,-7.6 0.93,-19.26 -7.02,-19.26 -2.69,0 -3.61,-0.13 -6.19,1.19 -5.18,2.64 -7.63,8.91 -5.26,14.48 1.56,3.66 5.55,6.9 9.56,6.9z"/>
   <path class="fil0" d="M14.13 88.81c0,1.81 1.25,2.53 3.16,2.53l50.84 0c4.02,0 3,-4.64 1.05,-4.64l-52.95 0c-1.06,0 -2.11,1.05 -2.11,2.11z"/>
   <path class="fil0" d="M14.13 76.58c0,0.88 0.32,1.52 0.96,1.99 0.56,0.41 1.31,0.54 2.2,0.54l29.53 0c4.67,0 3.24,-4.64 1.48,-4.64l-32.49 0c-0.75,0 -1.69,1.22 -1.69,2.11z"/>
  </g>
 </g>
</svg>
