<?xml version="1.0" encoding="UTF-8"?>
<!DOCTYPE svg PUBLIC "-//W3C//DTD SVG 1.1//EN" "http://www.w3.org/Graphics/SVG/1.1/DTD/svg11.dtd">
<!-- Creator: CorelDRAW -->
<svg xmlns="http://www.w3.org/2000/svg" xml:space="preserve" width="16.9333mm" height="16.9341mm" version="1.1" style="shape-rendering:geometricPrecision; text-rendering:geometricPrecision; image-rendering:optimizeQuality; fill-rule:evenodd; clip-rule:evenodd"
viewBox="0 0 58.11 58.12"
 xmlns:xlink="http://www.w3.org/1999/xlink"
 xmlns:xodm="http://www.corel.com/coreldraw/odm/2003">
 <defs>
  <style type="text/css">
   <![CDATA[
    .fil0 {fill:#FEFEFE}
    .fil1 {fill:#FEFEFE}
   ]]>
  </style>
 </defs>
 <g id="Camada_x0020_1">
  <metadata id="CorelCorpID_0Corel-Layer"/>
  <path class="fil0" d="M7.24 13.47l43.57 0c3.61,0 6.56,2.95 6.56,6.56l0 30.71c0,3.61 -2.95,6.56 -6.56,6.56l-43.57 0c-3.61,0 -6.56,-2.95 -6.56,-6.56l0 -30.71c0,-3.61 2.95,-6.56 6.56,-6.56zm23.63 19.98l0 6.2c0,0.6 0.3,0.9 0.9,0.9 1.01,0 6.41,0.22 6.91,-0.19 0.1,-0.08 0.32,-0.4 0.32,-0.58l0 -6.33c0,-0.62 -0.41,-1.03 -1.03,-1.03l-6.07 0c-0.62,0 -1.03,0.41 -1.03,1.03zm-11.75 -11.75l0 6.07c0,0.62 0.41,1.03 1.03,1.03l6.07 0c0.62,0 1.03,-0.41 1.03,-1.03l0 -6.33c0,-0.31 -0.46,-0.77 -0.77,-0.77l-6.59 0c-0.42,0 -0.77,0.56 -0.77,1.03zm11.75 -0.26l0 6.33c0,0.62 0.41,1.03 1.03,1.03l6.07 0c0.62,0 1.03,-0.41 1.03,-1.03l0 -6.07c0,-0.47 -0.36,-1.03 -0.77,-1.03l-6.59 0c-0.31,0 -0.77,0.46 -0.77,0.77zm11.75 23.76l0 6.2c0,0.62 0.41,1.03 1.03,1.03l5.81 0c0.77,0 1.29,-0.26 1.29,-1.03l0 -6.07c0,-0.47 -0.36,-1.03 -0.77,-1.03l-6.46 0c-0.6,0 -0.9,0.3 -0.9,0.9zm-35.26 0.13l0 6.07c0,0.77 0.52,1.03 1.29,1.03l5.81 0c0.62,0 1.03,-0.41 1.03,-1.03l0 -6.2c0,-0.6 -0.3,-0.9 -0.9,-0.9l-6.46 0c-0.42,0 -0.77,0.56 -0.77,1.03zm35.26 -12.14l0 6.46c0,0.6 0.3,0.9 0.9,0.9l6.46 0c0.42,0 0.77,-0.56 0.77,-1.03l0 -6.07c0,-0.77 -0.52,-1.03 -1.29,-1.03l-5.81 0c-0.47,0 -1.03,0.36 -1.03,0.77zm-35.26 0.26l0 6.07c0,0.47 0.36,1.03 0.77,1.03l6.46 0c0.6,0 0.9,-0.3 0.9,-0.9l0 -6.46c0,-0.42 -0.56,-0.77 -1.03,-0.77l-5.81 0c-0.77,0 -1.29,0.26 -1.29,1.03zm0 -11.75l0 6.07c0,0.62 0.41,1.03 1.03,1.03l6.07 0c0.47,0 1.03,-0.36 1.03,-0.77l0 -6.46c0,-0.6 -0.3,-0.9 -0.9,-0.9l-6.46 0c-0.42,0 -0.77,0.56 -0.77,1.03zm11.75 23.5l0 6.2c0,0.77 0.52,1.03 1.29,1.03l5.55 0c0.77,0 1.29,-0.26 1.29,-1.03l0 -6.2c0,-0.6 -0.3,-0.9 -0.9,-0.9l-6.33 0c-0.6,0 -0.9,0.3 -0.9,0.9zm11.75 0l0 6.2c0,0.77 0.52,1.03 1.29,1.03l5.55 0c0.77,0 1.29,-0.26 1.29,-1.03l0 -6.2c0,-0.6 -0.3,-0.9 -0.9,-0.9l-6.33 0c-0.6,0 -0.9,0.3 -0.9,0.9zm-11.75 -11.75l0 6.33c0,0.2 0.16,0.42 0.25,0.52 0.18,0.19 0.28,0.25 0.65,0.25l6.33 0c0.6,0 0.9,-0.3 0.9,-0.9l0 -6.2c0,-0.62 -0.41,-1.03 -1.03,-1.03l-6.07 0c-0.62,0 -1.03,0.41 -1.03,1.03zm23.5 -11.88l0 6.46c0,0.42 0.56,0.77 1.03,0.77l6.07 0c0.62,0 1.03,-0.41 1.03,-1.03l0 -6.07c0,-0.47 -0.36,-1.03 -0.77,-1.03l-6.46 0c-0.6,0 -0.9,0.3 -0.9,0.9z"/>
  <path class="fil1" d="M1.68 52.18l0 -34.61 54.76 0 0 34.61c0,2.31 -1.66,4.13 -3.75,4.13l-47.27 0c-2.18,0 -3.75,-1.91 -3.75,-4.13zm-1.68 -42.49l0 43.13c0,0.78 0.3,1.56 0.58,2.13 0.17,0.33 0.33,0.6 0.55,0.87 1.17,1.45 2.51,2.29 4.81,2.29l46.23 0c3.34,0 5.94,-2.59 5.94,-5.29l0 -43.13c0,-1.52 -1.01,-3.07 -1.88,-3.8 -1.65,-1.39 -2.79,-1.49 -5.09,-1.49l0 5.04c0,2.5 -2.65,3.42 -4.11,2.04 -0.31,-0.29 -0.8,-0.98 -0.8,-1.52l0 -5.55 -8.14 0c0,2.16 0.33,5.44 -0.59,6.78 -0.62,0.9 -2.34,1.48 -3.65,0.17 -0.98,-0.98 -0.67,-2.53 -0.67,-4.62 0,-0.43 0,-0.86 0.01,-1.3 0.01,-0.55 0.13,-1.03 -0.4,-1.03l-7.49 0c-0.62,0 -0.39,1.05 -0.39,2.2 0,0.86 -0,1.72 0,2.58 0.01,1.06 -0,1.46 -0.54,2.04 -1.3,1.39 -3.01,1 -3.73,0.03 -0.98,-1.33 -0.64,-4.66 -0.64,-6.85l-8.14 0 0 5.55c0,0.51 -0.44,1.17 -0.73,1.46 -0.97,0.97 -2.51,0.92 -3.43,-0.01 -0.46,-0.46 -0.74,-1.09 -0.74,-1.97l0 -5.04c-2.31,0 -3.45,0.1 -5.09,1.49 -0.87,0.73 -1.88,2.28 -1.88,3.8z"/>
  <path class="fil1" d="M47.78 1.04l0 8.52c0,1.2 1.81,1.4 1.81,-0.39l0 -7.88c0,-1.86 -1.81,-1.51 -1.81,-0.26z"/>
  <path class="fil1" d="M8.52 1.29l0 7.88c0,1.79 1.81,1.58 1.81,0.39l0 -8.52c0,-1.25 -1.81,-1.6 -1.81,0.26z"/>
  <path class="fil1" d="M34.74 0.78l0 8.78c0,1.35 1.68,1.03 1.68,0.26l0 -8.91c0,-1.39 -1.68,-0.95 -1.68,-0.13z"/>
  <path class="fil1" d="M21.7 0.91l0 8.91c0,0.77 1.68,1.09 1.68,-0.26l0 -8.78c0,-0.82 -1.68,-1.26 -1.68,0.13z"/>
 </g>
</svg>
