<?xml version="1.0" encoding="UTF-8"?>
<!DOCTYPE svg PUBLIC "-//W3C//DTD SVG 1.1//EN" "http://www.w3.org/Graphics/SVG/1.1/DTD/svg11.dtd">
<!-- Creator: CorelDRAW -->
<svg xmlns="http://www.w3.org/2000/svg" xml:space="preserve" width="16.9333mm" height="16.1443mm" version="1.1" style="shape-rendering:geometricPrecision; text-rendering:geometricPrecision; image-rendering:optimizeQuality; fill-rule:evenodd; clip-rule:evenodd"
viewBox="0 0 99.73 95.08"
 xmlns:xlink="http://www.w3.org/1999/xlink"
 xmlns:xodm="http://www.corel.com/coreldraw/odm/2003">
 <defs>
  <style type="text/css">
   <![CDATA[
    .fil0 {fill:#F6D848}
   ]]>
  </style>
 </defs>
 <g id="Camada_x0020_1">
  <metadata id="CorelCorpID_0Corel-Layer"/>
  <path class="fil0" d="M33.96 30.35c-6.55,0.93 -13.54,1.24 -20.16,1.84 -2.52,0.23 -7.61,0.45 -9.9,1.01 -3.22,0.79 -5.07,3.12 -3.09,6.45 0.96,1.62 20.28,18.36 23.23,20.83 -0.02,1.49 -5.21,23.92 -6,27.12 -0.85,3.44 -0.57,7.34 3.16,7.47 2.62,0.09 5.9,-2.29 7.68,-3.39 2.29,-1.42 4.66,-2.81 7.01,-4.17 1.62,-0.94 13.36,-8.22 13.97,-8.22 0.46,-0 17.93,10.53 20.68,12.22 1.7,1.04 5.3,3.56 7.74,3.57 3.9,0.02 4.28,-3.73 3.5,-7.11 -0.82,-3.57 -6.08,-25.78 -6.09,-27.48 1.06,-0.92 1.75,-1.63 2.81,-2.56l8.82 -7.72c2.31,-2.19 10.33,-8.53 11.57,-10.55 2.01,-3.29 0.14,-5.64 -2.9,-6.42 -2.72,-0.7 -24.45,-2.04 -30.23,-2.89l-6.95 -16.08c-1.14,-2.75 -2.32,-5.39 -3.49,-8.14 -1.09,-2.56 -2.35,-6.13 -5.44,-6.12 -3.11,0.01 -4.3,3.49 -5.38,5.97 -1.91,4.4 -9.11,21.73 -10.53,24.38z"/>
 </g>
</svg>
