<?xml version="1.0" encoding="UTF-8"?>
<!DOCTYPE svg PUBLIC "-//W3C//DTD SVG 1.1//EN" "http://www.w3.org/Graphics/SVG/1.1/DTD/svg11.dtd">
<!-- Creator: CorelDRAW -->
<svg xmlns="http://www.w3.org/2000/svg" xml:space="preserve" width="16.9333mm" height="16.1443mm" version="1.1" style="shape-rendering:geometricPrecision; text-rendering:geometricPrecision; image-rendering:optimizeQuality; fill-rule:evenodd; clip-rule:evenodd"
viewBox="0 0 79.66 75.95"
 xmlns:xlink="http://www.w3.org/1999/xlink"
 xmlns:xodm="http://www.corel.com/coreldraw/odm/2003">
 <defs>
  <style type="text/css">
   <![CDATA[
    .fil0 {fill:#96989A}
   ]]>
  </style>
 </defs>
 <g id="Camada_x0020_1">
  <metadata id="CorelCorpID_0Corel-Layer"/>
  <path class="fil0" d="M27.13 24.24c-5.23,0.74 -10.82,0.99 -16.1,1.47 -2.01,0.18 -6.08,0.36 -7.9,0.81 -2.57,0.63 -4.05,2.49 -2.47,5.15 0.77,1.3 16.2,14.67 18.55,16.64 -0.01,1.19 -4.17,19.11 -4.8,21.67 -0.68,2.75 -0.46,5.86 2.52,5.96 2.09,0.07 4.71,-1.83 6.14,-2.71 1.83,-1.13 3.73,-2.25 5.6,-3.33 1.29,-0.75 10.67,-6.56 11.16,-6.56 0.37,-0 14.32,8.41 16.52,9.76 1.36,0.83 4.23,2.84 6.18,2.85 3.11,0.02 3.42,-2.98 2.8,-5.68 -0.66,-2.86 -4.85,-20.59 -4.87,-21.95 0.84,-0.73 1.4,-1.3 2.25,-2.04l7.05 -6.16c1.85,-1.75 8.25,-6.82 9.24,-8.43 1.61,-2.63 0.11,-4.5 -2.32,-5.13 -2.17,-0.56 -19.53,-1.63 -24.15,-2.31l-5.56 -12.85c-0.91,-2.2 -1.86,-4.31 -2.79,-6.5 -0.87,-2.05 -1.88,-4.9 -4.35,-4.89 -2.49,0.01 -3.44,2.79 -4.3,4.77 -1.53,3.52 -7.28,17.36 -8.41,19.47z"/>
 </g>
</svg>
