<?xml version="1.0" encoding="UTF-8"?>
<!DOCTYPE svg PUBLIC "-//W3C//DTD SVG 1.1//EN" "http://www.w3.org/Graphics/SVG/1.1/DTD/svg11.dtd">
<!-- Creator: CorelDRAW -->
<svg xmlns="http://www.w3.org/2000/svg" xml:space="preserve" width="16.9333mm" height="16.1443mm" version="1.1" style="shape-rendering:geometricPrecision; text-rendering:geometricPrecision; image-rendering:optimizeQuality; fill-rule:evenodd; clip-rule:evenodd"
viewBox="0 0 88.57 84.44"
 xmlns:xlink="http://www.w3.org/1999/xlink"
 xmlns:xodm="http://www.corel.com/coreldraw/odm/2003">
 <defs>
  <style type="text/css">
   <![CDATA[
    .fil0 {fill:#FEFEFE}
   ]]>
  </style>
 </defs>
 <g id="Camada_x0020_1">
  <metadata id="CorelCorpID_0Corel-Layer"/>
  <path class="fil0" d="M30.16 26.96c-5.82,0.83 -12.03,1.1 -17.9,1.63 -2.24,0.2 -6.76,0.4 -8.79,0.9 -2.86,0.71 -4.5,2.77 -2.75,5.73 0.85,1.44 18.01,16.31 20.63,18.5 -0.01,1.32 -4.63,21.25 -5.33,24.09 -0.75,3.06 -0.51,6.52 2.8,6.63 2.33,0.08 5.24,-2.03 6.82,-3.01 2.03,-1.26 4.14,-2.5 6.22,-3.71 1.44,-0.84 11.87,-7.3 12.41,-7.3 0.41,-0 15.92,9.36 18.36,10.85 1.51,0.92 4.71,3.16 6.87,3.17 3.46,0.02 3.8,-3.31 3.11,-6.32 -0.73,-3.17 -5.4,-22.89 -5.41,-24.4 0.94,-0.81 1.55,-1.45 2.5,-2.27l7.84 -6.85c2.05,-1.95 9.17,-7.58 10.27,-9.37 1.79,-2.92 0.12,-5.01 -2.58,-5.71 -2.41,-0.62 -21.72,-1.81 -26.85,-2.57l-6.18 -14.28c-1.01,-2.45 -2.06,-4.79 -3.1,-7.23 -0.97,-2.28 -2.09,-5.45 -4.83,-5.44 -2.77,0.01 -3.82,3.1 -4.78,5.3 -1.7,3.91 -8.09,19.3 -9.35,21.65z"/>
 </g>
</svg>
