<?xml version="1.0" encoding="UTF-8"?>
<!DOCTYPE svg PUBLIC "-//W3C//DTD SVG 1.1//EN" "http://www.w3.org/Graphics/SVG/1.1/DTD/svg11.dtd">
<!-- Creator: CorelDRAW -->
<svg xmlns="http://www.w3.org/2000/svg" xml:space="preserve" width="16.9333mm" height="10.4471mm" version="1.1" style="shape-rendering:geometricPrecision; text-rendering:geometricPrecision; image-rendering:optimizeQuality; fill-rule:evenodd; clip-rule:evenodd"
viewBox="0 0 63.97 39.47"
 xmlns:xlink="http://www.w3.org/1999/xlink"
 xmlns:xodm="http://www.corel.com/coreldraw/odm/2003">
 <defs>
  <style type="text/css">
   <![CDATA[
    .fil0 {fill:#FEFEFE}
   ]]>
  </style>
 </defs>
 <g id="Camada_x0020_1">
  <metadata id="CorelCorpID_0Corel-Layer"/>
  <g id="_2561963527264">
   <path class="fil0" d="M-0 10.98l0 0.03 0 0.25c0.01,0.22 0.1,0.4 0.51,0.58 0.34,0.14 0.7,0.25 1,0.37 8.48,3.41 17.34,6.65 25.81,10.05 3.75,1.5 3.62,1.84 6.05,0.86l10.8 -4.19c0.65,-0.25 1.16,-0.48 1.79,-0.71l14.51 -5.61 0 13.87c-0.37,0.25 -0.67,0.4 -0.93,0.82 -1.05,1.65 0.12,3.3 1.06,3.56 -0.61,1.15 -1.5,4.62 -1.5,6.37 0,2.81 4.87,3.27 4.87,-0.25 0,-1.18 -0.52,-3.6 -0.89,-4.73 -0.15,-0.47 -0.37,-0.87 -0.49,-1.39 1.11,-0.74 1.37,-1.12 1.37,-2.44l0 -0.06c0,-1.2 -1.37,-1.65 -1.37,-2.12l0 -14.24c0,-0.19 0.27,-0.55 0.37,-0.75 -0.02,-0.02 -0.04,-0.09 -0.05,-0.07 -0.01,0.02 -0.04,-0.06 -0.05,-0.07 -0.04,-0.05 -0.08,-0.11 -0.18,-0.2 -0.32,-0.26 -2.87,-1.07 -3.38,-1.24 -1.36,-0.45 -2.66,-0.97 -3.97,-1.41l-19.68 -6.93c-6.12,-2.02 -2.73,-1.8 -12.15,1.31 -2.6,0.86 -5.2,1.86 -7.84,2.78l-13.68 4.81c-0.6,0.2 -1.48,0.5 -1.98,0.77z"/>
   <path class="fil0" d="M9.75 20.35c0,0.79 0,1.58 -0,2.38 -0,0.89 0.13,1.29 0.13,2.25 -0.01,2.12 0.06,2.5 0.79,3.96 1.96,3.89 7.45,6.32 11.58,7.41 1.32,0.35 2.4,0.57 3.93,0.82 7.46,1.2 17.63,-0.24 23.47,-5.15 0.5,-0.42 0.87,-0.7 1.3,-1.2 0.79,-0.94 1.48,-1.91 1.87,-3.25 0.58,-2.01 0.29,-7.2 0.29,-9.83 -0.77,0.06 -16.96,6.48 -18.87,7.25 -3.06,1.22 -2.5,1.23 -5.52,0.02 -0.92,-0.37 -1.76,-0.69 -2.69,-1.05 -0.97,-0.38 -1.75,-0.67 -2.7,-1.05 -0.92,-0.37 -1.8,-0.72 -2.7,-1.05 -0.91,-0.33 -1.74,-0.67 -2.71,-1.04 -0.92,-0.35 -1.83,-0.71 -2.69,-1.05 -0.85,-0.34 -4.86,-2 -5.48,-2.02l0 2.62z"/>
  </g>
 </g>
</svg>
