<?xml version="1.0" encoding="UTF-8"?>
<!DOCTYPE svg PUBLIC "-//W3C//DTD SVG 1.1//EN" "http://www.w3.org/Graphics/SVG/1.1/DTD/svg11.dtd">
<!-- Creator: CorelDRAW -->
<svg xmlns="http://www.w3.org/2000/svg" xml:space="preserve" width="16.9333mm" height="16.5875mm" version="1.1" style="shape-rendering:geometricPrecision; text-rendering:geometricPrecision; image-rendering:optimizeQuality; fill-rule:evenodd; clip-rule:evenodd"
viewBox="0 0 59.6 58.38"
 xmlns:xlink="http://www.w3.org/1999/xlink"
 xmlns:xodm="http://www.corel.com/coreldraw/odm/2003">
 <defs>
  <style type="text/css">
   <![CDATA[
    .fil0 {fill:#FEFEFE}
   ]]>
  </style>
 </defs>
 <g id="Camada_x0020_1">
  <metadata id="CorelCorpID_0Corel-Layer"/>
  <path class="fil0" d="M-0 29.08c0,4.64 0.54,7.74 2.08,11.89 0.56,1.5 1.26,2.78 1.99,4.06 0.9,1.57 1.91,3.01 3.07,4.38 0.99,1.18 2.03,2.05 3.02,3.03 0.28,0.28 0.51,0.44 0.82,0.69 1.76,1.43 3.43,2.53 5.51,3.57 0.75,0.37 1.25,0.63 2.07,0.96 1.58,0.63 3.91,1.62 3.91,-1.11 0,-8.19 0.6,-3.06 -5.49,-4.76 -5.32,-1.49 -4.09,-5.84 -7.76,-8.3 -0.52,-0.35 -1.24,-0.77 -1.3,-1.49 1.25,-0.84 3.21,0 4.21,0.8 0.91,0.72 1.49,1.81 2.17,2.72 1.7,2.26 4.42,2.97 7.11,2.06 0.16,-0.05 0.72,-0.21 0.87,-0.29 0.42,-0.23 0.3,-0.4 0.39,-0.89 0.34,-1.93 1.51,-2.78 1.66,-3.35 -1,0 -2.01,-0.2 -2.96,-0.42 -0.96,-0.22 -1.83,-0.47 -2.68,-0.81 -1.46,-0.59 -2.59,-1.33 -3.77,-2.28 -4.17,-3.36 -5.04,-11.26 -3.14,-15.92 0.35,-0.87 0.87,-1.76 1.47,-2.49 0.97,-1.17 0.5,-0.83 0.23,-2.27 -0.34,-1.78 -0.15,-3.82 0.4,-5.49 0.36,-1.09 0.34,-0.95 1.38,-0.95 1.78,0 3.98,1.18 5.41,2.04 2.47,1.49 1.1,1 4.92,0.36 3.15,-0.53 7.05,-0.47 10.12,0.31 2.34,0.6 1.31,0.27 4.93,-1.56 1.17,-0.59 2.96,-1.16 4.54,-1.16 0.76,0 1.16,4.01 1.16,4.54 0,3.36 -1.26,2.61 -0.03,4.1 1.77,2.13 2.47,4.74 2.47,7.66 0,4 -0.95,7.52 -3.52,10.33 -0.54,0.59 -1.29,1.11 -1.95,1.54 -0.65,0.43 -1.51,0.89 -2.31,1.18 -1.51,0.54 -3.97,1.27 -5.72,1.27 0.16,0.6 1.27,1.43 1.68,3.33 0.4,1.86 0.18,2.91 0.18,4.59l0 5.35c0,3.91 4.1,1.2 5.9,0.43 2.02,-0.85 4.77,-2.71 6.35,-4.24l3.02 -3.03c2.6,-2.94 4.79,-6.89 5.87,-10.66 1.63,-5.68 1.71,-10.43 0.46,-16.21 -0.37,-1.73 -1.24,-4.01 -1.93,-5.41 -1.29,-2.62 -3.06,-5.58 -5.15,-7.65 -2.88,-2.85 -5.81,-5.31 -9.6,-6.93 -7.07,-3.03 -14.49,-3.5 -21.85,-1.06 -3.82,1.27 -7.47,3.42 -10.41,6.13 -4.15,3.84 -7.73,9.3 -8.94,14.92 -0.44,2.05 -0.86,4.03 -0.86,6.47z"/>
 </g>
</svg>
