<?xml version="1.0" encoding="UTF-8"?>
<!DOCTYPE svg PUBLIC "-//W3C//DTD SVG 1.1//EN" "http://www.w3.org/Graphics/SVG/1.1/DTD/svg11.dtd">
<!-- Creator: CorelDRAW -->
<svg xmlns="http://www.w3.org/2000/svg" xml:space="preserve" width="317.248mm" height="295.651mm" version="1.1" style="shape-rendering:geometricPrecision; text-rendering:geometricPrecision; image-rendering:optimizeQuality; fill-rule:evenodd; clip-rule:evenodd"
viewBox="0 0 10947.39 10202.14"
 xmlns:xlink="http://www.w3.org/1999/xlink"
 xmlns:xodm="http://www.corel.com/coreldraw/odm/2003">
 <defs>
  <style type="text/css">
   <![CDATA[
    .fil0 {fill:black}
    .fil2 {fill:black}
    .fil3 {fill:#26110D}
    .fil1 {fill:#F8B1A1}
    .fil4 {fill:#FEFEFE}
   ]]>
  </style>
 </defs>
 <g id="Camada_x0020_1">
  <metadata id="CorelCorpID_0Corel-Layer"/>
  <path class="fil0" d="M4577.22 10110.3l96.63 15.54 -0.01 -0.13 -0.01 -0.23 522.83 56.32 91.23 5.86 0.14 0.01 213.08 8.83 0.19 0.01 160.49 5.64 0.07 0 374.55 -3.91 78.16 -9.09 0.07 -0.01 421.72 -55.53 77.05 -16.62 0.09 -0.02 291.74 -70.93 0 0.11 119.86 -37c14.32,-4.59 35.32,-9.81 49.06,-13.87 34.51,-10.19 63.57,-19.8 101.14,-32.62 63.76,-21.75 136.1,-52.6 198.29,-66.79l92.94 -41.3c5.49,-3.17 11.58,-5.7 18.36,-8.16l0 0 0 -0c10.33,-3.74 22.26,-7.32 36.08,-12.73l295.32 -129.33 0 0.13 64.03 -33.06 0 -0.17c3.16,-1.58 6.31,-3.14 9.45,-4.71 70.45,-35.11 134.35,-67.02 198.74,-105.39 37.94,-22.61 171.39,-104.91 208.21,-112.3l81.72 -63.12c66.45,-55.19 161.5,-109.56 227.53,-159.52 83.92,-63.49 151.49,-130.37 234.86,-185.76 0.01,0.45 0.02,0.89 0.04,1.34l71.18 -59.35 273.07 -298.24 0.05 1.18 90.5 -125.02c4.66,-7.42 10.1,-14.7 16.44,-22.71 17.94,-22.71 43,-51.32 77.26,-105.78 210.56,-334.76 308.21,-627.32 321.11,-1052.32 -5.25,-233.05 -20.44,-461.74 -69.82,-685.25 -15.47,-70.04 -41.56,-133.72 -47.49,-201.49 648.99,-174.45 1011.81,-780.58 915.01,-1407.75 -127.69,-827.29 -1271.58,-1168.6 -1245.06,-689.74 22.17,400.36 -9.66,659.83 -130.48,1027.51 -34.82,105.97 -84.04,190.46 -121.12,277.55 -57.96,-20.31 -141.65,-87.18 -190.97,-121.4 -68.51,-47.53 -126.21,-81.36 -192.31,-126.5 -6.38,-48.05 42.93,-589.49 31.15,-825.3 -37.77,-756.04 -261.08,-1329.9 -754.57,-1845.62 -138.69,-144.93 -281.77,-269.53 -469.93,-394.49 -70.36,-46.73 -74.18,-20.38 -103.8,-116.6 -137.5,-446.68 -1090.33,-574.44 -1390.05,-342.79 -76.32,58.99 -225.95,25.43 -392.86,21.67 -139.92,-3.16 -276.85,0.2 -413.95,7.79 -164.11,9.09 -81.35,-63.26 -307.34,-126.68 -279.97,-78.57 -1108.03,5.15 -1253.95,418.78 -13.41,38 -14.26,52.78 -22.89,88.23 -17.52,72.01 -46.81,59.12 -173.74,154.48 -388.26,291.71 -743.91,724.03 -890.12,1288.1 -153.08,590.6 -85.71,1050.61 -86.5,1625.94l-242.45 139.63c-62.08,35.01 -180.33,135.48 -224.57,149.69 -110.28,-80.72 -199.84,-378.73 -224.96,-527.16 -38.73,-228.85 -16.54,-508.49 -19.02,-748.42 -1.57,-152.06 -12.19,-188.78 -160.23,-213.98 -116.69,-19.87 -241.42,-8.3 -349.5,20.89 -225.96,61.02 -347.31,165.32 -460.45,305.78 -324.96,403.41 -309.09,1222.06 133.3,1698.84 156.61,168.78 298.87,210.04 466.45,294.7 -11.21,67.61 -49.9,159.79 -68.7,240.6 -52.88,227.25 -95.23,697.24 -27.43,898.61 -3.45,87.76 37.64,228.46 62.59,312.38l74.66 236.93 -0.03 -4.04c91.6,173.6 158.07,295.04 256.44,434.01l142.98 179.99 0.02 0.02 96.49 111.52c0,-0.29 0,-0.57 0,-0.86 43,22.36 74.6,56.27 109.48,90.93 109.83,109.14 208.85,176.31 336.54,265.18 2.54,1.76 5.08,3.54 7.64,5.32l-0.01 0.37 63.16 47.02 0.01 -0.45c59,35.8 125.78,75.03 188.03,109.84 37.91,21.2 64.94,37.68 101.61,56.49 26.98,13.83 46.62,20.89 63.32,30.56l110.68 59.35 0.01 -0.47c60.64,27.33 124.87,56.21 189.33,82.86 27.99,11.57 67.48,22.38 103.33,36.33 12.97,5.04 25.46,10.5 36.75,16.56l106.78 48.11 -0.01 -1.32 409.63 132.67 0.03 0.01 81.85 25.65 0 -0.53 450.18 103.53 0.03 0.01 104.24 21.62 -0.02 -0.37 279.19 45.87 0.18 0.03zm2907.68 -263.91l-0 0 -0 0c0,0 0,0 0,0 0,-0 0,-0 0,-0 0,0 0,0 0,0z"/>
  <path class="fil1" d="M3519.57 2496.17c-367.85,200.37 -730.19,723.85 -883,1138.57 -229.67,623.33 -158.93,1150.39 -146.66,1832.13l-381.86 231.81c-122.07,87.48 -236.12,188.82 -319.64,289.2 -208.39,250.45 -342.16,467.31 -421.71,807.82 -172.52,738.5 67.92,1483.84 435.92,1909.67 193.5,223.9 397.86,400.67 660.67,557 865.73,514.99 1867.09,708.47 2909.54,777.69 817.64,54.29 1407.36,-72.95 2077.12,-338.18 579.52,-229.49 1157.53,-621.18 1482.06,-977.48 476.94,-523.65 722.61,-1008.36 601.83,-1798.11 -175.81,-1149.53 -982.4,-1326.23 -1032.9,-1422.9 -14.3,-74.02 20.88,-392.34 24.47,-499.11 15.86,-471.26 -49.51,-943.65 -222.59,-1362.3 -112.41,-271.9 -248.8,-460.31 -402.85,-656.44 -90.34,-115.02 -414.12,-424.14 -572.92,-493.02 -117.29,505.17 -519.66,239.17 -914.74,190.44 -181.95,-22.45 -438.85,-9.88 -549.84,-119.25 -195.68,-192.83 -120.21,-334.3 -68.87,-490.25 -225.77,-14.18 -460.76,-13.52 -686.43,2.65 -0.87,90.01 60.05,144.7 26.19,281.38 -73.06,294.9 -481.66,248.45 -693.19,304.49 -212.76,56.36 -568.3,231.91 -801.41,56.51 -104.77,-78.83 -67.57,-128.39 -119.19,-222.3z"/>
  <path class="fil2" d="M9568.68 2389.27c147.51,90.55 287.77,189.48 419.87,302.17 145.48,124.11 276.87,261.13 401.88,405.62 399.26,461.48 571.94,1080.22 555.94,1683.23 -15.51,584.26 -210.52,1194.31 -597.25,1639.98 -1.08,1.25 -2.03,2.28 -3.18,3.47l-95.67 98.97c-0.46,0.47 -0.85,0.87 -1.32,1.34 -34.59,34.27 -74.68,55.71 -118.43,69.59 4.24,226.97 -2.38,444.58 -82.85,662.9 -34.75,94.27 -103.64,228.35 -222.18,219.19l-14.26 -1.1c-0.85,-0.04 -1.69,-0.1 -2.55,-0.16l-82.54 -6.2c-2.14,-0.16 -4.13,-0.38 -6.09,-0.66 -11.33,-0.06 -22.42,0.03 -33.77,-0.51 -46.06,-2.21 -82.39,-39.48 -83.43,-85.57 -5.04,-223.92 -19.34,-449.09 -67.77,-668.31 -15.93,-72.08 -42.68,-137.97 -49.21,-212.76 -3.74,-42.72 23.15,-81.14 64.56,-92.28 588.98,-158.32 943.81,-709.32 851.13,-1309.74 -53.21,-344.73 -313.95,-631.83 -628.47,-767.57 -97.93,-42.26 -239.11,-83.17 -346.36,-60.39 -67.93,14.43 -100.03,49.08 -96.1,120 22.03,397.88 -10.36,681.26 -134.72,1059.71 -33.27,101.25 -82.59,187.87 -123.74,284.52 -18.12,42.57 -65.97,63.69 -109.64,48.38 -74.33,-26.05 -147.11,-87.12 -211.94,-132.1 -62.9,-43.64 -128.56,-82.96 -191.78,-126.13 -21.31,-14.56 -34.06,-35.27 -37.46,-60.85 -4.82,-36.33 1.06,-95.42 3.22,-132.66 4.37,-75.43 9.33,-150.83 13.77,-226.26 5.08,-86.33 9.73,-172.76 12.65,-259.2 2.4,-70.78 4.39,-143.6 0.86,-214.34 -35.44,-709.31 -236.4,-1273.19 -730.36,-1789.39 -139.72,-146.01 -286.33,-270 -455.09,-382.08 -24.33,-16.16 -52.95,-27.1 -75.01,-45.59 -36.38,-30.51 -50.6,-74.46 -64.08,-118.24 -66.32,-215.44 -369.71,-325.86 -567.68,-365.62 -130.99,-26.31 -272.33,-36.3 -405.41,-22.74 -89.2,9.09 -207,33.03 -279.59,89.14 -61.94,47.87 -142.57,54.3 -217.98,52.64 -76.84,-1.68 -153.44,-10.96 -230.46,-12.7 -135.75,-3.06 -271.57,0.18 -407.12,7.68 -80.87,4.48 -132.56,-4.11 -193.44,-58.07 -45.79,-40.58 -82.48,-54.92 -142.43,-71.74 -79.84,-22.41 -184.99,-24.91 -267.44,-22.65 -122.03,3.34 -246.89,19.64 -365.55,48.28 -182.19,43.97 -446.03,143.51 -514.62,337.93 -9.55,27.07 -13.64,52.11 -20.38,79.79 -13.14,53.98 -35.56,88.06 -80.87,119.65 -17.02,11.87 -35.13,22.55 -52.63,33.73 -24.94,15.93 -49.1,32.67 -72.76,50.45 -412.73,310.1 -727.46,736.67 -857.92,1240.02 -68.81,265.5 -95.05,523.97 -97.56,797.51 -2.46,268.76 14.23,537.58 13.86,806.56 -0.04,32.17 -16.03,59.77 -43.91,75.83l-242.45 139.63c-0.24,0.14 -0.44,0.25 -0.68,0.39 -36.93,20.83 -75.86,51.92 -110.37,77.1 -36.05,26.3 -88.41,66.19 -130.46,79.69 -27.58,8.86 -55.19,4.39 -78.57,-12.72 -137.4,-100.57 -231.68,-418.26 -259.61,-583.26 -41.89,-247.51 -17.65,-511.56 -20.25,-762.14 -0.16,-15.21 -0.7,-94.18 -10,-106.15 -8.74,-9.8 -65.02,-20.25 -77.3,-22.34 -101.71,-17.32 -212.85,-7.66 -311.94,19.1 -185.44,50.07 -297.05,129.66 -415.04,276.15 -164.81,204.6 -217.04,505.63 -201.87,761.74 17.66,298.14 126.12,601.52 331.16,822.5 139.42,150.25 268.05,188.35 441.72,276.09 34.76,17.56 53.31,54.15 46.94,92.57 -13.81,83.32 -50.62,163.65 -69.8,246.13 -46.08,198.07 -93.69,660.8 -29.73,850.78 8.01,23.77 6.05,47.21 -5.79,69.33 -11.84,22.12 -30.26,36.74 -54.48,43.27 -32.35,8.71 -39.34,14.92 -69.42,30.44 -15.73,8.12 -49.1,22.05 -64.9,23.88 -110.15,12.74 -165.22,-131.26 -208.27,-210.03 -65.03,-118.99 -100.32,-241.25 -85.68,-377.32 5.07,-47.1 15.73,-92.22 28.18,-137.81 5.64,-20.63 11.73,-41.45 17.07,-62.39 -21.55,-21.07 -43.63,-41.56 -66.55,-61.21 -24.3,-20.83 -49.5,-40.5 -73.95,-61.13 -84.61,-71.41 -157.99,-158.12 -228.15,-243.33 -436.88,-530.57 -521.19,-1334.91 -451.5,-1997.77 12.26,-116.59 27.21,-232.75 49.77,-347.84 21.95,-111.99 51.08,-221.32 84.89,-330.27 62.93,-202.8 158.1,-384.66 273.93,-561.75 102.47,-156.65 256.51,-325.9 404.25,-440.03 110.9,-85.67 261.66,-186.97 391.66,-238.48 15.55,-6.16 62.22,-17.22 89,-26.72 12.02,-422.47 189.29,-896.62 425.63,-1237.26 244.25,-352.03 535,-595.17 917.35,-787.33 748.66,-376.26 1799.25,-524.55 2549.44,-75.89 25.43,15.21 48.9,33.11 72.53,50.35 1.63,-1.52 3.17,-2.96 4.61,-4.29 18.54,-17.13 36.53,-34.78 54.68,-52.31 115.6,-111.65 280.29,-213.86 420.91,-292.07 218.47,-121.5 443.81,-206.25 688.4,-258.72 597.71,-128.22 1262.58,-2.38 1807.1,264.14 540.82,264.7 1037.8,705.35 1241.44,1285.54 106.74,304.1 101.62,493.1 71.34,789.06z"/>
  <path class="fil3" d="M9732.73 7380.86l82.54 6.2c0,-0.01 0,-0.02 0,-0.04l16.98 1.31c64.25,4.97 114.56,-111.57 133.19,-162.12 84.35,-228.85 82.05,-458.67 75.85,-702.16 65.47,-9.88 111.09,-27.71 145.97,-62.28l95.67 -98.97c719.03,-828.62 802.77,-2328.19 41.22,-3208.41 -265.34,-306.69 -498.47,-510.44 -848.44,-718.93 31.76,-297.86 52.45,-482.78 -61.08,-806.24 -374.33,-1066.47 -1835.91,-1731.45 -2947.46,-1493.01 -252.48,54.16 -464.45,138.55 -664.18,249.62 -128.53,71.48 -297.2,176.69 -402.63,278.51 -27.17,26.24 -87.86,86.42 -115.66,102.25 -38.98,-23.21 -75.49,-55.98 -122.04,-83.83 -731.73,-437.62 -1757.07,-276.86 -2465.1,78.98 -396.04,199.04 -663.66,440.4 -884.7,758.98 -206.19,297.18 -410.28,778.12 -410.65,1231.44 -25.56,40.54 -101.31,47.26 -143.71,64.06 -118.41,46.91 -274.05,151.96 -370.36,226.35 -130.17,100.56 -284.11,265.2 -384.48,418.64 -101.64,155.38 -198.51,330.13 -263.57,539.74 -72.54,233.76 -103.96,402.2 -131.2,661.3 -69.42,660.22 19.78,1432.27 431.99,1932.89 228.57,277.59 217.86,210.13 396.87,393.37 -26.61,149.37 -124.52,296.38 21.46,563.51 30.83,56.4 79.87,169.78 121.29,164.99 1.56,-0.18 33.83,-14.21 34.79,-14.7 40.15,-20.71 40.21,-24.62 86.81,-37.17 -67.8,-201.37 -25.45,-671.36 27.43,-898.61 18.8,-80.81 57.5,-172.99 68.7,-240.6 -167.57,-84.66 -309.83,-125.92 -466.45,-294.7 -442.39,-476.77 -458.26,-1295.43 -133.3,-1698.84 113.15,-140.46 234.49,-244.76 460.45,-305.78 108.08,-29.19 232.81,-40.76 349.5,-20.89 148.05,25.21 158.66,61.92 160.23,213.98 2.48,239.93 -19.71,519.57 19.02,748.42 25.12,148.43 114.68,446.45 224.96,527.16 44.25,-14.21 162.49,-114.67 224.57,-149.69l242.45 -139.63c0.8,-575.33 -66.58,-1035.35 86.5,-1625.94 146.2,-564.07 501.85,-996.39 890.12,-1288.1 126.93,-95.36 156.22,-82.47 173.74,-154.48 8.63,-35.45 9.48,-50.23 22.89,-88.23 145.92,-413.64 973.98,-497.35 1253.95,-418.78 226,63.42 143.23,135.77 307.34,126.68 137.1,-7.59 274.03,-10.95 413.95,-7.79 166.91,3.76 316.54,37.32 392.86,-21.67 299.72,-231.65 1252.55,-103.89 1390.05,342.79 29.62,96.23 33.44,69.88 103.8,116.6 188.16,124.96 331.24,249.56 469.93,394.49 493.49,515.71 716.79,1089.58 754.57,1845.62 11.78,235.81 -37.53,777.24 -31.15,825.3 66.1,45.14 123.8,78.96 192.31,126.5 49.33,34.22 133.02,101.09 190.97,121.4 37.08,-87.09 86.29,-171.58 121.12,-277.55 120.82,-367.68 152.65,-627.15 130.48,-1027.51 -26.52,-478.85 1117.37,-137.55 1245.06,689.74 96.8,627.17 -266.02,1233.31 -915.01,1407.75 5.92,67.77 32.01,131.45 47.49,201.49 49.38,223.5 64.57,452.2 69.82,685.25 13.18,0.63 22.92,0.38 30.2,0.41 5.09,0.03 8.99,0.19 12.03,0.9z"/>
  <path class="fil0" d="M7903.73 6180.89c-352.76,39.8 -705.11,162.24 -1032.63,251.41 -855.2,232.83 -1350.36,284.07 -2227.3,77.61 -339.41,-79.91 -687.66,-195.35 -1033.24,-245.37 -404.37,-58.53 -770.1,-7.24 -997.08,219.81 -56.02,56.03 -95.39,91.62 -151.95,164.21 -658.57,845.22 280.3,1702.15 957.08,2120.71 528.74,327 1334.16,470.3 2073.05,486.72 801.27,17.82 1495.41,-157.52 2063.74,-495.76 480.42,-285.92 1086.85,-695.3 1328.03,-1228.56 163.88,-362.35 135.43,-700.89 -66.85,-1007.2 -183.15,-277.34 -451.39,-395.66 -912.86,-343.59z"/>
  <path class="fil4" d="M3578.48 8723.13c410.14,165.47 485.46,217.29 961.85,312.54 377.21,75.42 782.48,100.88 1182.54,95.3 -12.45,-397.21 -24.61,-794.52 -23.23,-1192.9 1.36,-393.64 38.92,-817.76 28.04,-1204.17 -543.69,3.27 -957.7,-64.68 -1467.93,-193.37 -146.19,-36.87 -302.18,-89.56 -448.02,-117.17 -100.42,151.56 -181.68,832.02 -211.54,1071.74 -47.87,384.42 -60.51,844.55 -21.71,1228.02z"/>
  <path class="fil4" d="M5811.51 6735.1c-3.15,519.38 -40.96,1985.99 -1.67,2394.16 810.42,-18.13 1408.7,-289.72 1942.9,-634.4 121.16,-78.18 125.43,-61.23 149.39,-167.32 59.08,-261.67 60.78,-649.63 33.55,-911.74 -41.71,-401.5 -83.88,-738.86 -211.84,-1083.57 -148.79,23.78 -314.56,75.27 -458.82,117.14 -155.22,45.05 -303.82,85.25 -459.69,124.82 -150.17,38.12 -317.24,73.86 -473.57,98.88 -162.72,26.05 -367.08,30.8 -520.25,62.03z"/>
  <path class="fil0" d="M5635.55 4892.09l-212.66 -56.06c71.6,76.68 320.07,166.96 391.78,271.38 53.66,78.13 -0.76,502.45 10.2,637.56 62.78,-65.32 53.85,-218.71 106.66,-289.56 24.5,21.51 37.24,42.64 64.88,66.26 21.57,18.43 48.92,40.82 74.56,59.66 177.61,130.56 352.74,221.52 601.72,208.71 859.87,-44.25 1273.12,-1292.2 857.16,-2069.41 -571.48,-1067.78 -1866.29,-577.26 -1941,674.52 -11.56,193.75 26.29,323.86 46.72,496.94z"/>
  <path class="fil0" d="M4106.3 3162.34c-634.57,103.89 -938.95,830.4 -876.41,1476.21 57.95,598.46 535.7,1267.09 1201.73,1156.15 584.56,-97.38 969.43,-764.95 886.47,-1482.1 -69.56,-601.39 -528.07,-1262.2 -1211.79,-1150.26z"/>
  <path class="fil4" d="M4120.5 3236.59c-729.04,146.65 -1155.42,1345.16 -464.6,2154.85 383.9,449.97 1042.93,439.16 1391.8,-198.29 134.02,-244.87 235.98,-553.2 187.11,-892.67 -77.16,-536.03 -506.04,-1186.25 -1114.31,-1063.89z"/>
  <path class="fil4" d="M5937.5 5338.49c45.77,21.88 39.43,27.16 70.81,61.98 22.42,24.88 46.08,39.68 72.97,61.12 800.02,637.82 1512.13,-237.91 1505.31,-1041.68 -2.75,-324.18 -93.86,-657.39 -251.5,-845.24 -670.38,-798.81 -1676.02,-120.6 -1650.78,918.38 2.55,104.86 16.04,403.98 86.97,462.61 175.28,144.89 158.91,97.11 166.22,382.84z"/>
  <path class="fil4" d="M3487.77 8658.55c-32.17,-616.65 -17.2,-1154.29 102.49,-1756.7 35.06,-176.47 96.97,-343.33 130.39,-497.62 -76.39,-45.39 -422.44,-84.85 -529.89,-78.78 -509.61,28.8 -859.06,508.38 -826.6,1004.13 27.95,426.96 449.99,845.51 749.86,1074.84 75.65,57.86 288.31,223.46 373.75,254.13z"/>
  <path class="fil1" d="M9071.35 5771.21c141.59,149.36 231.15,179.47 369.41,433.28 32.25,59.2 57.39,126.79 92.48,189.17 103.73,3.83 279.27,-88.7 351.26,-137.2 317.99,-214.23 497.03,-596.54 497.25,-1008.71 0.3,-553.61 -422.12,-1040.9 -1002.52,-980.26 -10.8,39.59 3.89,337.03 -2.59,423.35 -25.43,338.69 -82.34,622.69 -229.12,925.89 -25.73,53.15 -63.24,102.77 -76.18,154.48z"/>
  <path class="fil1" d="M1340.52 6426.39c51.42,-70.43 98.74,-200.23 211.04,-346.81 69.19,-90.31 194.59,-247.7 275.11,-295.08 -36.6,-75.37 -90.29,-113.25 -155.15,-283.18 -165.85,-434.51 -91.26,-779.86 -88.18,-1202.58 -138.7,-33.86 -306.4,-12.99 -436.67,24.99 -632.04,184.21 -700.15,1169.43 -367.8,1680.36 115.33,177.29 357.6,396.22 561.65,422.31z"/>
  <path class="fil4" d="M7810.58 6313.07c3.26,17.32 95.38,282.91 128.05,432.17 35.2,160.85 63.57,334.56 80.84,502.16 39.01,378.74 33.36,719.3 -33.05,1084.9 111.02,-65.09 188.52,-146.27 281.69,-222.6 111.41,-91.27 160.38,-151.08 255.5,-256.37 134.75,-149.16 305.34,-397.69 349.19,-659.3 95.7,-570.93 -326.17,-1060.76 -1062.22,-880.96z"/>
  <path class="fil3" d="M4439.23 1891.94c-316.88,27.14 -648.63,107.78 -783.37,339.15 -108.74,186.73 -92.16,628.17 513.71,416.37 430.83,-150.61 574.81,-103.5 689.41,-150.05 332.44,-135.03 117.01,-457.05 41.55,-517.53 -107.99,-86.57 -293.6,-102.29 -461.31,-87.93z"/>
  <path class="fil3" d="M6170.04 1905.85c-160.29,35.15 -269.61,100.1 -314,237.27 -59.38,183.5 1.6,308.42 120.86,379.65 53.23,31.79 389.15,54.09 479.17,66.62 238.43,33.18 717.4,281.56 781.48,-124.88 77.67,-492.62 -765.5,-624.88 -1067.51,-558.65z"/>
  <path class="fil0" d="M4540.56 4061.87c-358.36,92.97 -230.49,791.2 121.64,722.44 348.9,-68.13 226.22,-812.68 -121.64,-722.44z"/>
  <path class="fil0" d="M6243.79 4073.14c-147.83,34.7 -246.57,214.45 -228.38,407.26 15.84,167.94 133.24,363.52 326.94,316.94 133.17,-32.02 237.98,-228.71 215.46,-408.27 -20.73,-165.31 -135.15,-357.92 -314.02,-315.94z"/>
  <path class="fil0" d="M5625.57 5700.23c13.26,-19.98 10.59,-8.15 19.92,-43.75 18.2,-69.47 24.62,-362.29 -11.83,-427.74 -30.39,43.04 -32.79,167.04 -34.12,225.9 -1.54,68.11 -13.51,187.05 26.04,245.59z"/>
  <path class="fil0" d="M5397.82 5700.23c13.26,-19.98 10.59,-8.15 19.92,-43.75 18.2,-69.47 24.62,-362.29 -11.83,-427.74 -30.39,43.04 -32.79,167.04 -34.12,225.9 -1.54,68.11 -13.51,187.05 26.04,245.59z"/>
 </g>
</svg>
