<?xml version="1.0" encoding="UTF-8"?>
<!DOCTYPE svg PUBLIC "-//W3C//DTD SVG 1.1//EN" "http://www.w3.org/Graphics/SVG/1.1/DTD/svg11.dtd">
<!-- Creator: CorelDRAW -->
<svg xmlns="http://www.w3.org/2000/svg" xml:space="preserve" width="16.9333mm" height="16.9665mm" version="1.1" style="shape-rendering:geometricPrecision; text-rendering:geometricPrecision; image-rendering:optimizeQuality; fill-rule:evenodd; clip-rule:evenodd"
viewBox="0 0 65.12 65.25"
 xmlns:xlink="http://www.w3.org/1999/xlink"
 xmlns:xodm="http://www.corel.com/coreldraw/odm/2003">
 <defs>
  <style type="text/css">
   <![CDATA[
    .fil0 {fill:#FEFEFE}
   ]]>
  </style>
 </defs>
 <g id="Camada_x0020_1">
  <metadata id="CorelCorpID_0Corel-Layer"/>
  <g id="_2562955820352">
   <path class="fil0" d="M33.39 59.38c-1.84,0 -5.65,0.13 -6.99,-0.02 -1.67,-0.19 -3.57,-0.01 -5.37,-0.11 -0.56,-0.03 -0.53,-0.11 -1.14,-0.13 -2.72,-0.08 -5.64,-0.35 -8.01,-1.8 -5.72,-3.5 -5.88,-9.42 -5.88,-16.16 0,-5.43 -0.35,-20.95 0.62,-25.63 1.07,-5.13 4.54,-8.06 9.79,-9.07 3.87,-0.74 20.46,-0.47 23.36,-0.47 8.83,0 16.85,0.1 18.96,9.84 0.88,4.09 0.3,8.7 0.56,11.04l0.11 10.6c-0.02,0.65 -0.13,0.78 -0.14,1.52 -0,1.11 0,2.21 0,3.32 0,0.53 0.03,1.14 0,1.66 -0.03,0.59 -0.14,0.78 -0.13,1.53 0.04,6.03 -2.31,10.44 -7.22,12.53 -3.39,1.44 -8.3,1.19 -12.02,1.23l-3.18 0.13c-1.1,0 -2.21,0 -3.31,0zm-33.39 -35.43l0 17.46c0,8.8 1.03,13.95 5.51,18.45 4.45,4.46 9.97,5.38 18.7,5.38l16.69 0c6.77,0 12.98,-0.3 17.94,-4.62 4.88,-4.25 6.27,-9.95 6.27,-16.28l0 -23.96c0,-6.39 -1.73,-11.97 -6.33,-15.84 -5.04,-4.24 -10.87,-4.55 -17.75,-4.55l-16.82 0c-7.17,0 -13.75,0.42 -18.7,5.38 -4.5,4.51 -5.51,9.75 -5.51,18.57z"/>
   <path class="fil0" d="M33 43.45c-3.18,0 -5.91,-1.02 -8.06,-3.15 -6.66,-6.62 -2.22,-18.51 7.81,-18.51 9.92,0 14.93,13.04 6.23,19.61 -1.48,1.11 -3.92,2.06 -5.97,2.06zm-17.2 -10.83c0,14.73 18.5,23.32 29.66,10.8 2.47,-2.77 3.98,-7 3.98,-10.8 0,-12.91 -14.54,-21.73 -26.4,-13.79 -4.06,2.72 -7.24,7.97 -7.24,13.79z"/>
   <path class="fil0" d="M46.13 14.78l0 0.64c0,1.95 1.75,3.7 3.7,3.7 1.4,0 2.06,-0.16 3.09,-1.24 3.44,-3.58 -1.86,-8.99 -5.49,-5.61 -0.57,0.53 -1.3,1.48 -1.3,2.52z"/>
  </g>
 </g>
</svg>
