<?xml version="1.0" encoding="UTF-8"?>
<!DOCTYPE svg PUBLIC "-//W3C//DTD SVG 1.1//EN" "http://www.w3.org/Graphics/SVG/1.1/DTD/svg11.dtd">
<!-- Creator: CorelDRAW -->
<svg xmlns="http://www.w3.org/2000/svg" xml:space="preserve" width="16.9334mm" height="16.1708mm" version="1.1" style="shape-rendering:geometricPrecision; text-rendering:geometricPrecision; image-rendering:optimizeQuality; fill-rule:evenodd; clip-rule:evenodd"
viewBox="0 0 86.93 83.02"
 xmlns:xlink="http://www.w3.org/1999/xlink"
 xmlns:xodm="http://www.corel.com/coreldraw/odm/2003">
 <defs>
  <style type="text/css">
   <![CDATA[
    .fil0 {fill:#FD6268}
   ]]>
  </style>
 </defs>
 <g id="Camada_x0020_1">
  <metadata id="CorelCorpID_0Corel-Layer"/>
  <g id="_2562592281408">
   <path class="fil0" d="M48.77 34.73l0 -7.78 -18.81 0 0 56.07 18.81 0 0 -32.37c0,-5.35 4.53,-10.13 9.04,-10.13 2.34,0 4.37,-0.07 6.36,1.41 3.82,2.86 4.13,8.53 4.13,13.6l0 27.49 18.63 0 0 -32.92c0,-3.42 -0.57,-6.93 -1.38,-9.65 -0.73,-2.47 -2.11,-5.55 -3.74,-7.48 -3.64,-4.29 -8.78,-7.29 -14.96,-7.29 -4.84,0 -7.4,0.45 -11.47,3.18l-5.04 4.18c-0.59,0.59 -0.91,1.23 -1.58,1.68z"/>
   <polygon class="fil0" points="1.2,83.02 19.83,83.02 19.83,26.95 1.2,26.95 "/>
   <path class="fil0" d="M9.88 19.35c3.29,0 6.09,-0.6 8.28,-2.75 6.32,-6.23 1.6,-16.6 -6.65,-16.6 -3.5,0 -6.17,0.39 -8.73,2.84 -5.66,5.43 -2.37,16.51 7.1,16.51z"/>
  </g>
 </g>
</svg>
