<?xml version="1.0" encoding="UTF-8"?>
<!DOCTYPE svg PUBLIC "-//W3C//DTD SVG 1.1//EN" "http://www.w3.org/Graphics/SVG/1.1/DTD/svg11.dtd">
<!-- Creator: CorelDRAW -->
<svg xmlns="http://www.w3.org/2000/svg" xml:space="preserve" width="16.9334mm" height="16.1708mm" version="1.1" style="shape-rendering:geometricPrecision; text-rendering:geometricPrecision; image-rendering:optimizeQuality; fill-rule:evenodd; clip-rule:evenodd"
viewBox="0 0 71.08 67.88"
 xmlns:xlink="http://www.w3.org/1999/xlink"
 xmlns:xodm="http://www.corel.com/coreldraw/odm/2003">
 <defs>
  <style type="text/css">
   <![CDATA[
    .fil0 {fill:#FEFEFE}
   ]]>
  </style>
 </defs>
 <g id="Camada_x0020_1">
  <metadata id="CorelCorpID_0Corel-Layer"/>
  <g id="_2562303543168">
   <path class="fil0" d="M39.88 28.4l0 -6.36 -15.38 0 0 45.85 15.38 0 0 -26.47c0,-4.38 3.7,-8.28 7.39,-8.28 1.91,0 3.58,-0.06 5.2,1.16 3.13,2.34 3.38,6.97 3.38,11.12l0 22.48 15.23 0 0 -26.92c0,-2.8 -0.47,-5.67 -1.13,-7.89 -0.6,-2.02 -1.72,-4.54 -3.06,-6.11 -2.97,-3.51 -7.18,-5.96 -12.23,-5.96 -3.96,0 -6.05,0.37 -9.38,2.6l-4.12 3.42c-0.48,0.48 -0.75,1 -1.29,1.37z"/>
   <polygon class="fil0" points="0.98,67.88 16.22,67.88 16.22,22.04 0.98,22.04 "/>
   <path class="fil0" d="M8.08 15.82c2.69,0 4.98,-0.49 6.77,-2.25 5.17,-5.1 1.31,-13.57 -5.44,-13.57 -2.86,0 -5.05,0.31 -7.14,2.32 -4.63,4.44 -1.94,13.5 5.81,13.5z"/>
  </g>
 </g>
</svg>
