<?xml version="1.0" encoding="UTF-8"?>
<!DOCTYPE svg PUBLIC "-//W3C//DTD SVG 1.1//EN" "http://www.w3.org/Graphics/SVG/1.1/DTD/svg11.dtd">
<!-- Creator: CorelDRAW -->
<svg xmlns="http://www.w3.org/2000/svg" xml:space="preserve" width="16.9327mm" height="22.602mm" version="1.1" style="shape-rendering:geometricPrecision; text-rendering:geometricPrecision; image-rendering:optimizeQuality; fill-rule:evenodd; clip-rule:evenodd"
viewBox="0 0 71.11 94.92"
 xmlns:xlink="http://www.w3.org/1999/xlink"
 xmlns:xodm="http://www.corel.com/coreldraw/odm/2003">
 <defs>
  <style type="text/css">
   <![CDATA[
    .fil0 {fill:#FEFEFE}
   ]]>
  </style>
 </defs>
 <g id="Camada_x0020_1">
  <metadata id="CorelCorpID_0Corel-Layer"/>
  <path class="fil0" d="M21.26 37.25c0,-4.95 0.92,-8.11 4.3,-11.47 9.14,-9.08 24.32,-1.75 24.32,9.53 0,2.83 -0.11,4.45 -1.39,7.1 -1.89,3.9 -6.86,7.94 -11.95,7.94 -4.77,0 -7.84,-0.91 -10.98,-4.06 -1.14,-1.15 -2.09,-2.28 -2.84,-3.71 -0.56,-1.08 -1.47,-3.73 -1.47,-5.32zm10.69 -37.1c-1.95,0.15 -4.58,0.77 -6.46,1.3 -15.59,4.42 -27.25,20.94 -25.27,36.71 0.36,2.84 1.24,5.8 2.16,8.28 5.52,14.83 17.81,31.87 27.97,44.81 0.75,0.96 1.48,1.96 2.38,2.71 0.97,0.81 2.67,1.21 4.07,0.81 2.22,-0.63 3.84,-3.28 5.19,-5.01 1.58,-2.02 3.05,-3.85 4.54,-5.89 5.87,-7.99 11.66,-16.47 16.54,-25.19 0.66,-1.17 1.03,-2.22 1.72,-3.37 0.74,-1.22 1.11,-2.28 1.76,-3.58 2.23,-4.42 4.36,-10.75 4.55,-16 0.18,-4.85 -1.52,-12.45 -4.03,-16.63 -3.84,-6.41 -6.96,-10.54 -14.1,-14.52 -4.07,-2.27 -8.97,-4.08 -13.77,-4.43 -2.61,-0.19 -4.67,-0.2 -7.25,-0z"/>
 </g>
</svg>
