<?xml version="1.0" encoding="UTF-8"?>
<!DOCTYPE svg PUBLIC "-//W3C//DTD SVG 1.1//EN" "http://www.w3.org/Graphics/SVG/1.1/DTD/svg11.dtd">
<!-- Creator: CorelDRAW -->
<svg xmlns="http://www.w3.org/2000/svg" xml:space="preserve" width="16.9333mm" height="16.9332mm" version="1.1" style="shape-rendering:geometricPrecision; text-rendering:geometricPrecision; image-rendering:optimizeQuality; fill-rule:evenodd; clip-rule:evenodd"
viewBox="0 0 91.54 91.54"
 xmlns:xlink="http://www.w3.org/1999/xlink"
 xmlns:xodm="http://www.corel.com/coreldraw/odm/2003">
 <defs>
  <style type="text/css">
   <![CDATA[
    .fil0 {fill:#FD6268}
   ]]>
  </style>
 </defs>
 <g id="Camada_x0020_1">
  <metadata id="CorelCorpID_0Corel-Layer"/>
  <path class="fil0" d="M11.44 38.13c0,-4.83 1.49,-9.53 3.56,-13.12 5.9,-10.24 17.34,-15.43 29.07,-12.84 3.88,0.85 8.11,2.97 11.15,5.54 7.46,6.31 11.25,16.7 8.84,26.34 -1.43,5.71 -4.33,10.7 -8.84,14.51 -1.46,1.24 -4.41,3.15 -6.16,3.85 -1.81,0.73 -3.03,1.16 -5.02,1.65 -10.52,2.63 -21.43,-1.95 -27.78,-10.74 -0.79,-1.09 -1.93,-3.04 -2.42,-4.26 -1.4,-3.48 -2.41,-6.97 -2.41,-10.93zm-11.44 -1.67c0,9.7 1.4,14.58 5.94,22.18 3.69,6.17 9.48,10.77 15.82,13.97 10.59,5.34 25.05,4.85 35.24,-1.3 0.74,-0.45 1.36,-0.85 2.1,-1.24 1.86,1.25 17.21,17.6 19.98,19.82 2.98,2.39 7.49,2.18 10.24,-0.57 2.7,-2.7 2.96,-7.09 0.67,-10.1 -1.71,-2.26 -18.74,-18.34 -19.93,-20.11 4.57,-8.63 6.2,-11.16 6.2,-22.64 0,-5.1 -1.86,-11.14 -3.57,-14.54 -0.49,-0.96 -0.94,-2.04 -1.53,-3 -6.53,-10.76 -18.52,-18.92 -31.36,-18.92 -6.94,0 -12.04,0.63 -17.87,3.57 -0.96,0.49 -2.04,0.94 -3,1.53 -1,0.61 -1.84,1.19 -2.72,1.81 -1.83,1.29 -3.46,2.63 -5.06,4.23 -6.45,6.46 -11.14,16.07 -11.14,25.32z"/>
 </g>
</svg>
