<?xml version="1.0" encoding="UTF-8"?>
<!DOCTYPE svg PUBLIC "-//W3C//DTD SVG 1.1//EN" "http://www.w3.org/Graphics/SVG/1.1/DTD/svg11.dtd">
<!-- Creator: CorelDRAW -->
<svg xmlns="http://www.w3.org/2000/svg" xml:space="preserve" width="16.9333mm" height="10.5859mm" version="1.1" style="shape-rendering:geometricPrecision; text-rendering:geometricPrecision; image-rendering:optimizeQuality; fill-rule:evenodd; clip-rule:evenodd"
viewBox="0 0 103.67 64.81"
 xmlns:xlink="http://www.w3.org/1999/xlink"
 xmlns:xodm="http://www.corel.com/coreldraw/odm/2003">
 <defs>
  <style type="text/css">
   <![CDATA[
    .fil0 {fill:#FEFEFE}
   ]]>
  </style>
 </defs>
 <g id="Camada_x0020_1">
  <metadata id="CorelCorpID_0Corel-Layer"/>
  <g id="_2129833212704">
   <path class="fil0" d="M7.69 32.4c0,-0.86 7.26,-7.72 8.55,-8.86l7.2 -5.96c0.91,-0.61 1.66,-1.27 2.61,-1.85 1.87,-1.15 3.41,-2.24 5.4,-3.31 1.92,-1.04 3.82,-1.94 5.89,-2.82 3.93,-1.66 8.09,-2.71 12.47,-2.92 2.77,-0.13 0.2,-0.29 3.86,-0.01 2.41,0.18 3.34,0.17 5.9,0.78 4.93,1.17 8.14,2.62 12.51,4.9 0.92,0.48 1.93,1.09 2.82,1.63 0.86,0.52 1.86,1.12 2.7,1.76l5.03 3.67c1.65,1.32 3.12,2.58 4.68,4.03 2.25,2.09 4.64,4.16 6.68,6.48 2.76,3.13 2.49,1.98 0.09,4.85l-7.69 7.49c-3.87,3.24 -4.82,3.81 -8.79,6.8 -4.68,3.53 -12.27,6.88 -17.87,8.25 -1.38,0.34 -6.33,1.03 -7.9,1.03l-3.94 -0.33c-1.41,-0.21 -2.64,-0.38 -3.8,-0.66 -12.65,-3.01 -23.2,-11.24 -32.2,-20.24 -0.44,-0.44 -4.2,-4.13 -4.2,-4.71zm-7.69 -0.4c0,2.14 0.45,2.11 1.91,3.96 0.82,1.05 1.56,1.72 2.39,2.67l6.28 6.48c0.55,0.51 0.86,0.64 1.42,1.21 1.46,1.49 6.8,5.78 8.61,6.98 5.19,3.45 6.92,4.75 13.13,7.52 14.82,6.61 29.21,4.71 42.91,-3.39 8.15,-4.82 9.66,-6.63 16.23,-12.12 0.49,-0.41 0.87,-0.85 1.33,-1.31l3.85 -3.85c1.18,-1.17 5.62,-6.04 5.62,-7.34 0,-2.7 -2.18,-4.23 -4.3,-6.63l-6.28 -6.48c-5.14,-4.75 -10.32,-8.61 -16.32,-12.23 -6.12,-3.71 -15.69,-7.46 -23.53,-7.46 -7.68,0 -12.95,1.05 -19.37,3.92 -5.63,2.51 -8.32,4.17 -13.15,7.5 -3.19,2.2 -8.55,6.66 -11.27,9.39l-6.81 7.17c-0.8,0.99 -2.66,2.71 -2.66,4.02z"/>
   <path class="fil0" d="M32.4 31.59c0,4.78 0.88,8.39 3.53,12.06l2.09 2.57c2.7,2.95 8.56,5.62 13.01,5.62 5.72,0 9,-0.89 13.45,-3.97 2.6,-1.79 6.8,-6.05 6.8,-9.4 0,-1.85 -1.8,-2.72 -3.43,-2.85 -4.12,-0.33 -4.12,-6.12 0,-6.45 2.37,-0.19 3.43,-1.28 3.43,-3.66 0,-1.11 -2.07,-3.95 -2.71,-4.78 -3.14,-4.03 -9.65,-7.78 -15.31,-7.78 -5.04,0 -8.63,0.61 -12.67,3.53l-2.57 2.08c-0.47,0.47 -0.56,0.72 -1.01,1.22 -1.29,1.45 -1.92,2.59 -2.78,4.3 -0.98,1.94 -1.82,4.59 -1.82,7.49z"/>
  </g>
 </g>
</svg>
