<?xml version="1.0" encoding="UTF-8"?>
<!DOCTYPE svg PUBLIC "-//W3C//DTD SVG 1.1//EN" "http://www.w3.org/Graphics/SVG/1.1/DTD/svg11.dtd">
<!-- Creator: CorelDRAW -->
<svg xmlns="http://www.w3.org/2000/svg" xml:space="preserve" width="151.062mm" height="144.02mm" version="1.1" style="shape-rendering:geometricPrecision; text-rendering:geometricPrecision; image-rendering:optimizeQuality; fill-rule:evenodd; clip-rule:evenodd"
viewBox="0 0 3705.46 3532.73"
 xmlns:xlink="http://www.w3.org/1999/xlink"
 xmlns:xodm="http://www.corel.com/coreldraw/odm/2003">
 <defs>
  <style type="text/css">
   <![CDATA[
    .fil0 {fill:#F6D848}
   ]]>
  </style>
 </defs>
 <g id="Camada_x0020_1">
  <metadata id="CorelCorpID_0Corel-Layer"/>
  <path class="fil0" d="M1261.86 1127.72c-243.47,34.55 -503.19,45.89 -749.02,68.23 -93.63,8.51 -282.9,16.66 -367.69,37.56 -119.73,29.52 -188.27,115.92 -114.9,239.8 35.74,60.34 753.37,682.29 863.14,774.1 -0.6,55.3 -193.75,888.92 -223.11,1007.84 -31.57,127.9 -21.2,272.75 117.27,277.39 97.36,3.26 219.15,-85.01 285.52,-126.07 85.01,-52.59 173.33,-104.56 260.33,-155.08 60.21,-34.96 496.48,-305.28 519.07,-305.35 17.26,-0.05 666.08,391.44 768.31,453.94 63.21,38.64 196.93,132.16 287.56,132.65 144.77,0.78 159.11,-138.62 130.17,-264.28 -30.59,-132.85 -225.83,-957.81 -226.37,-1021.03 39.25,-34.06 65,-60.48 104.51,-95.09l327.89 -286.69c85.93,-81.38 383.79,-317.02 429.8,-392.14 74.86,-122.22 5.08,-209.48 -107.85,-238.7 -100.88,-26.1 -908.6,-75.75 -1123.2,-107.31l-258.4 -597.59c-42.41,-102.34 -86.32,-200.35 -129.69,-302.5 -40.46,-95.29 -87.46,-227.88 -202.17,-227.4 -115.71,0.47 -159.92,129.57 -199.94,221.85 -70.95,163.56 -338.66,807.33 -391.23,905.87z"/>
 </g>
</svg>
