<?xml version="1.0" encoding="UTF-8"?>
<!DOCTYPE svg PUBLIC "-//W3C//DTD SVG 1.1//EN" "http://www.w3.org/Graphics/SVG/1.1/DTD/svg11.dtd">
<!-- Creator: CorelDRAW -->
<svg xmlns="http://www.w3.org/2000/svg" xml:space="preserve" width="326.193mm" height="334.602mm" version="1.1" style="shape-rendering:geometricPrecision; text-rendering:geometricPrecision; image-rendering:optimizeQuality; fill-rule:evenodd; clip-rule:evenodd"
viewBox="0 0 6270.01 6431.66"
 xmlns:xlink="http://www.w3.org/1999/xlink"
 xmlns:xodm="http://www.corel.com/coreldraw/odm/2003">
 <defs>
  <style type="text/css">
   <![CDATA[
    .fil18 {fill:#010102}
    .fil2 {fill:#030305}
    .fil4 {fill:#240F09}
    .fil6 {fill:#24729C}
    .fil17 {fill:#286D94}
    .fil15 {fill:#893441}
    .fil13 {fill:#9E99BA}
    .fil12 {fill:#B196A7}
    .fil5 {fill:#BBE3EA}
    .fil7 {fill:#D0606E}
    .fil14 {fill:#DB626D}
    .fil0 {fill:#E998B7}
    .fil8 {fill:#EA99B9}
    .fil11 {fill:#EAABD0}
    .fil10 {fill:#EBADCC}
    .fil9 {fill:#FCD046}
    .fil3 {fill:#FD6268}
    .fil1 {fill:#FEB2A2}
    .fil16 {fill:#FEFEFE}
   ]]>
  </style>
 </defs>
 <g id="Camada_x0020_1">
  <metadata id="CorelCorpID_0Corel-Layer"/>
  <g id="_2562303081344">
   <path class="fil0" d="M3854.82 1903.62l-51.1 113.74c-63.58,103.39 -184.45,175.38 -316.75,178.57 -18.57,55.29 -35.42,104.01 -54.23,155.97 68.66,67.51 153.41,191.58 166.42,325.16 12.66,129.93 -42.33,306.58 -120.18,369.64l85.7 80.15c32.92,32.22 44.92,49.88 74.77,82.51 64.45,-158.24 80.22,-118.76 109.33,-163.36 -15.7,-28.51 51.92,-167.04 68.79,-193.91 76.52,-121.92 167.27,-200.57 312.88,-244.94 78.84,-24.02 63.94,9.74 113.82,-94.36 25.62,-53.47 16.2,-35.87 35.63,-44.77 26.69,16.21 7.96,2.3 25.71,27.41 8.35,11.8 11.17,15.44 19.54,27.65 10.84,15.83 23.94,35.29 36.14,55.11 392.99,43.75 620.31,212.29 779.97,525.97 73.67,144.73 -10.23,73.58 178.15,145.66 51.24,19.6 71.84,12.58 72.9,36.62 -5.79,20.52 -2.71,16.17 -34.04,27.58l-130.68 56.71c4.42,188.43 33.96,268.45 -26.92,482.74 -17.52,61.68 -47.89,136.83 -77.1,187.54 -38.12,66.19 40.67,131.2 35.18,196.09 -21.48,12.39 -33.03,3.22 -33.82,3.02l-105.72 -36.77c-33.45,18.9 -53.82,56.09 -80.04,80.95l-86.88 75.86c-36.28,27.9 -44.94,41.66 -93.68,69.39 -84.55,48.09 -133.13,71.17 -227.63,104.72 -62.34,22.13 -71.74,6.8 -101.78,66.68 -22.18,44.22 -93.63,216.48 -122.18,214.03 -16.61,-1.42 -47.33,-68.91 -63.42,-96.63 -23.42,-40.33 -42.67,-65.86 -57.43,-104.7 -111.84,-6.5 -288.26,23.28 -394.15,-23.5l118.63 210.84c18.72,38.6 36.02,74.47 51.59,111.18 11.93,28.14 32.37,86.68 47.4,109.6 68.1,27.31 336.33,24.17 419.11,15.82 251.6,-25.39 478.31,-89.56 692.68,-212.84 99.41,-57.17 148.37,-88.66 235.47,-157.74l34.44 -26.19c65.66,-52.09 110.06,-108.63 173.6,-164.37l53.34 -62c9.46,-11.23 13.71,-19 23.26,-31.03l118.62 -165.7c6.48,-10.44 13.87,-23.71 20.14,-34.24 108.89,-182.81 224.99,-479.07 236.8,-726.86l-4.57 10.65c-14.87,-272.27 -73,-547.69 -192.94,-784.46 -37.67,-74.37 -194.75,-279.96 -266.2,-343.9 -25.87,-23.15 -33.76,-40.29 -58.57,-63.32 -13.83,-12.84 -20.07,-15.24 -33.52,-27.52 -12.57,-11.48 -15.2,-17.87 -29.13,-31.65 -166.55,-164.9 -456.27,-308.73 -734.07,-363.43 -273.73,-53.89 -601.92,-43.39 -840.81,70.23l-2.48 -19.58z"/>
   <path class="fil1" d="M1132.71 1261.29c-37.96,12.23 -76.55,27.52 -118.88,42.05 -74.96,25.72 -104.37,44.36 -110.49,3.43 8.03,-6.36 446.67,-155.1 549.64,-236.91 -24.02,-89.55 -8.25,-90.45 15.04,-165.56 -22.55,-0.04 -104.6,-6.28 -112.18,-5.29 -10.74,1.4 -43.32,31.77 -78.66,43.69 -80.96,27.32 -146.69,14.95 -206.64,-27.47 -45.7,-32.33 -81.59,-84.09 -103.86,-153.71 -27.21,-85.07 -43.26,-149.31 51.65,-172.27 -5.35,-32.21 -30.05,-84.46 -7.7,-107.94 21.18,9.01 11.13,-8.85 27.79,72.46 29.94,146.08 85.51,193.87 89.13,234.01 -34.2,-2.41 -37.43,-17.87 -65.38,-74.64 -16.95,-34.44 -23.96,-64.18 -35.72,-96.53 -70.54,14.15 -60.12,47.72 -41.36,112.89 25.51,88.63 74.84,174.29 169.49,195.56 54.39,12.23 113.36,-0.65 152.91,-26.28 145,-93.99 69.8,-332.65 -7.59,-463.76 -12.34,-20.9 -32.53,-38.86 -24.98,-56.37 12.81,-13.89 18.3,-6.5 39.2,28.62 42.71,71.77 57.05,100.72 82.47,181.97 12.6,40.27 26.79,103.27 23.46,148.75 -5.02,68.63 -26.6,87.2 -45.94,135.95 141.37,1.03 304.14,23.53 296.76,-237.98 -3.16,-112 -57.06,-264.27 -135.32,-341.65 -13.38,-13.23 -23.32,-16.45 -19.14,-40.72 70.27,-6.52 246.26,326.22 158.46,531.03 -11.99,27.97 -31.11,45.61 -39.84,67.44 114.83,3.09 179.01,8.74 244.1,-59.79 50.64,-53.32 69.42,-145.43 61.55,-231.25 -11.54,-125.85 -65,-295.84 -148.99,-380.18 -23.33,-23.43 -31.25,-11.06 -36.51,-48.69 102.05,9.28 229.84,305.12 212.62,504.2 -7.37,85.13 -30.42,115.65 -64.51,175.62 174,17.19 231.44,-30.54 263.85,-199.65 36.45,-190.24 -34.37,-391.88 -172.84,-518.61 -45.93,-42.04 -91.64,-62.25 -176.7,-59.7 -278.68,8.37 -862.43,215.43 -1106.87,315.77 -241.25,99.02 -457.65,206.44 -587.47,368.66 -149.25,186.51 -99.11,546.4 -24.94,781.93 38.36,121.82 90.98,224.56 147.7,326.98 29.51,53.29 55.84,103.21 83.63,153.51 16.84,30.48 64.69,137.32 92.07,143.28 102.48,22.31 323.5,-28.51 410.2,-60.27 158.43,-58.03 304.33,-191.07 377.17,-334.54 28.22,-55.59 49.79,-108.24 66.28,-170.94 25.96,-98.71 33.71,-111.81 -26.7,-170.6l-87.2 -95.99c-11.03,-13.44 -13.34,-18.18 -28.75,-30.51z"/>
   <path class="fil2" d="M1886.6 0c12.02,8.04 34.22,4.52 60.2,19.15 51.73,29.14 106.65,78.14 140.59,123.77 41.45,55.72 97.02,157.65 107.76,242.53 93.08,-38.85 142.33,-69.82 260.23,-88.69 192.82,-30.87 386.23,54.4 512.61,179.45 29.31,29 54.61,62.32 80.38,95.94 26.16,34.15 48.51,76.76 71.69,106.17 153.27,-31.29 265.41,-34.2 407.97,71.63 68.77,51.05 40.1,31.37 93.34,83.28 109.15,106.41 211.96,287.58 211.13,495.9 -0.7,44.92 -5,87.81 -14.21,126.49 -7.16,30.05 -38.18,86.7 -17.96,109.1 23.93,56.75 49.76,132.53 58.62,203.55 1.13,42.2 -6.71,105.99 -4.13,135.34l-51.1 113.74c-63.58,103.39 -184.45,175.38 -316.75,178.57 -18.57,55.29 -35.42,104.01 -54.23,155.97 68.66,67.51 153.41,191.58 166.42,325.16 12.66,129.93 -42.33,306.58 -120.18,369.64l85.7 80.15c32.92,32.22 44.92,49.88 74.77,82.51 64.45,-158.24 80.22,-118.76 109.33,-163.36 14.75,-2.38 5.44,-0.62 20.3,-5.74 2,-0.69 16.47,-6.4 19.5,-7.53 17.27,-6.46 20.68,-8.32 37.43,-11.29l67.4 4.58c32.86,-34.47 104.9,-206.84 243.8,-254.97 162.65,-56.36 271.75,62.79 343.84,131.41 73.63,70.1 155.63,182.32 208.75,292.68 45.2,93.91 104.55,289.74 103.14,403.12 -4.66,373.53 -496.69,616.59 -793.2,709.43 -206.14,64.54 -249.03,53.4 -443.8,28.92 -20.93,-10.53 -58.02,-19.92 -84.88,-31.62 -31.73,-13.82 -53.52,-26.32 -78.79,-43.43 -89.03,-60.28 -94.3,-86.44 -130.29,-116.26l0.8 157.67c139.18,-10.96 235.38,20.7 325.47,81.41 118.23,79.67 173.88,185.87 203.81,205.77l118.63 210.84c18.72,38.6 36.02,74.47 51.59,111.18 11.93,28.14 32.37,86.68 47.4,109.6l20.67 45.81 67.41 177.32c77.8,-2.12 153.94,-12.4 242.79,-10.43 90.2,2 149.04,21.47 230.07,38.7 19.23,18.48 248.17,70.57 261.86,351.76 17.47,358.84 -271.94,572.86 -563.81,687.1 -195.8,76.64 -478.71,107.95 -504.8,119.64l-304.34 0c-44.91,-22.42 -91.65,-26.65 -134.8,-55.27 -170.61,-113.13 -209.03,-313.97 -238.23,-507.87l-99.46 -454.04c-116.59,37.95 -161.46,68.84 -306.26,84.23 -139.93,14.87 -62.22,-11.73 -143.63,45.33l-116.65 73.36c-56.4,27.43 -111.68,54.86 -174.36,76.19 -222.31,75.62 -649.88,121.49 -878.14,28.38 -236.98,-96.67 -301.37,-376.35 -335.07,-676.24 -7.28,-64.81 0.63,-51.85 -35,-92.45 -55.39,-63.1 -107.25,-158.62 -139.56,-240.46 -49.43,-125.23 -83.18,-259.13 -101.84,-398.45 -72.46,-540.95 -53.49,-875.47 36.82,-1400.26 6.07,-35.28 16.34,-73.18 21.7,-108.63 4.63,-30.66 -19.36,-46.64 -38.98,-71.01l-212.51 -295.87c-103.08,-155.45 -188.14,-308.73 -280.84,-471.83 -31.41,-55.25 -60.89,-110.17 -89.91,-167.71 -79.44,-157.54 -94.99,-166.46 -147.05,-354.66 -12.75,-46.09 -33.35,-180.3 -45.71,-206.81l0 -322.58c15.71,-34.75 20.25,-85.35 39.12,-124.51 19.72,-40.93 38.72,-72.68 65.6,-103.87 263.9,-306.21 982.59,-525.22 1382.66,-631.41 44.83,-11.9 90.74,-23.44 138.41,-31.6 23.28,-3.98 44.04,-8.84 68.35,-12.57 11.51,-1.76 23.23,-2.53 35.96,-3.96 4.9,-0.55 14.9,-1.54 19.4,-2.46 2.24,-0.46 3.94,-0.83 6.02,-1.35 1.98,-0.49 3.9,-1.2 5.62,-1.7l125.46 -1.58zm2206.45 5411.82c20.93,-58.16 84.3,-141.41 152.71,-143.24 44.13,-1.18 113.59,-8 139.29,13.91 25.54,21.77 52.63,48.47 56.77,89.46l-73.75 0.01c-153.77,0.01 -230.05,38.71 -275.02,39.87zm-912.13 701.11c-16.54,-21.78 -46.4,-128.12 -43.93,-155.39 2.53,-27.95 61.9,-95.17 80.76,-119.61 66.4,-86.04 122.07,-135.33 204.18,-202.72 73.34,-60.19 153.02,-110.28 243.42,-163.49 61.7,-36.32 203.98,-110.11 270.25,-130.33 -41.26,54.23 -65.03,68.25 -78.66,159.2 -109.18,52.56 -262.64,135.76 -355.74,213.86 -127.36,106.84 -261.83,235.74 -320.27,398.48zm1295.68 -738.89c-8.42,-15.46 -12.5,-35.32 -21.9,-52.36 -12.38,-22.43 -17.23,-21.76 -29.11,-45.33 51.35,7.66 103.49,19.14 147.01,35.98 54.77,21.2 58.1,43.92 73.78,96.35l-169.78 -34.64zm322.02 256.52c-0.85,528.86 -611.53,719.74 -1043.18,763.65 -98.28,10 -182.74,16.96 -281.16,0.79 -83.11,-13.65 -167.87,-55.21 -197.87,-108.99 -20.32,-9.4 -28.67,-26.45 -42.49,-49.42 -37.95,-63.06 -52.29,-76.29 21.01,-198.88 25.86,-43.25 48.42,-73.98 78.47,-111.27 113.34,-140.62 389.55,-351.95 549.61,-400.42 0.71,-92.98 41.06,-130.51 88.64,-175.17 58.12,-54.57 116.66,-70.46 188.66,-77.5 -26,35.5 -111.42,91.08 -96.79,173.37 205.14,-42.17 446.93,-78.3 641.8,31.1 69.43,38.98 86.07,54.18 93.31,152.74zm-1673.81 266.84c-3.55,-53.49 -41.34,-216.19 -58.4,-286.38 -21.6,-88.9 -19.86,-69.17 52.14,-150.16 47.78,-53.75 124.5,-121.83 184.95,-167.69 139.36,-105.73 423.34,-269.03 664.4,-271.24l96.49 231.03c-195,50.38 -593.58,272.94 -751.34,429.41 -65.46,64.93 -179.29,207.11 -188.24,215.03zm-2034.34 -701.32c60.26,-42.47 206.2,-224.15 372.69,-295.55 -9.97,108.7 -20.87,80.84 -17.74,212.6 -187.53,109.33 -193.59,150.41 -303.92,285.98 -20.5,-36.31 -47.16,-153.45 -51.03,-203.04zm1488.74 -322.93c38.8,24.75 115.62,96 128.7,150.43 -21.43,-10.26 -27.75,-17.56 -47.66,-30.4 -66.73,-43.05 -58.71,-17.57 -69.33,-66.38 -3.96,-18.19 -8.03,-33.17 -11.71,-53.65zm-891.14 -76.28c109.72,-29 227.2,-7.44 251.05,88.75 -53.49,15.33 -92.85,24.26 -144,45.85 -31.02,13.1 -100.16,55.55 -122.78,53.14 -12.25,-86.11 5.38,-115.01 15.72,-187.74zm1036.9 441.82c-51.88,231.13 -373.93,402.31 -595.73,453.64 -178.27,41.26 -519.31,74.07 -704.73,14.38 -31.04,-9.99 -61.39,-24.23 -89.95,-39.48 -17.87,-9.54 -64.84,-40.25 -73.78,-60.25 -26.59,-14.45 -79.68,-93.72 -95.72,-136.91 -16.14,-43.48 36.76,-96.46 70.86,-141.85 68.81,-91.61 232.12,-185.08 238.69,-211.57 -0.61,-76.7 -5.11,-153.38 20.15,-221.54 13.4,-36.17 125.71,-74.41 160.66,-84.51 -7.28,89.88 -35.34,130.42 7.28,216.6 32.36,-4.4 102.5,-44.94 134.87,-59.38 244.55,-109.03 581.05,-92.41 812.71,34.73 34.66,19.02 89.97,57.71 109.05,87.45 23.6,36.79 25.22,109.45 5.66,148.69zm-160.53 -299.9c-6.15,-1.49 -142.95,-45.09 -143.71,-45.52 -23.39,-13.04 -10.87,-42.51 -43.32,-98.33l-19.23 -32.85c44.87,7.21 99.54,36.85 137.42,56.72 40.86,21.42 64.17,62.73 68.83,119.98zm-730.85 -184.23c59.81,-10.53 145.9,-39 204.99,-14.51 40.35,16.72 107.54,69.77 100.04,118.91l-172.45 20.93c-9.73,-49.85 -45.23,-82.1 -88.49,-100.88 -26.07,-11.32 -28.58,-9.15 -44.09,-24.44zm343.66 106.18c-5.4,-7.83 1.29,4.71 -7.9,-13.82 -54.72,-110.36 -14.25,-40.08 -94.49,-124.8 142.12,-8.45 271.72,-15.87 305.55,158.01l-203.15 -19.38zm-1092.02 291.6c-16.98,-33.14 -25.5,-163.76 -29.22,-208.53 -12.01,-144.31 -21.96,-97.28 49.46,-172.99 26.21,-27.78 94.75,-77.76 134.07,-103.45 48.57,-31.74 89.51,-56.34 145.89,-84.46 223.66,-111.53 484.25,-160.3 771.48,-160.18 20.68,10.69 8.79,-5.37 15.95,26.71l25.4 234.64c-263.14,7.26 -440.26,33.41 -656.74,136.2 -95.26,45.23 -172.92,91.34 -246.73,146.44 -21.47,16.03 -35.26,26.71 -56.37,45.44l-153.17 140.17zm-69.02 -234.97c-113.12,-91.32 -274.14,-615.54 -224.73,-738.47 55.23,-137.42 110.69,-203.84 185.36,-309.53 138.53,-196.08 336.44,-396.97 610.29,-372.76 115.32,10.19 277.05,79.1 342.56,152.31 72.05,80.52 134.74,190.23 173.08,321.89 19.59,67.27 73.75,354.49 58.43,424.15 -240.48,0.84 -448.82,30.59 -653.91,106.16 -141.1,51.99 -381.04,184.32 -461.07,287.09 -36.27,-198.48 27.62,-538.44 22.03,-581.01 -42.27,1.01 -33.79,22.84 -41.21,65.28l-23.29 267.99c-0.85,63.59 -1.32,131.74 2.42,194.95 2.58,43.52 14.65,140.45 10.03,181.95zm1544.87 -597.02c63.73,4.92 335.26,194.2 377.97,205.47 51.42,-37.08 79.37,-69.36 130.93,-103.09 182.47,-119.38 347.75,-117.29 516.81,3.8 137.06,98.17 292.19,348.83 368.95,561.33l-21.06 8.14c-71.54,19.04 -105.85,5.16 -267,64.24 -89.71,32.89 -161.58,71.69 -237.97,114.96 -83.3,47.19 -140.43,95.05 -208.77,150.69l-135.63 128.88c-17.66,17.14 -19.75,27.78 -39.87,44.55 -16.38,-22.14 -27.4,-109.23 -35.37,-143.65 -24.36,-105.14 -11.8,-132.72 -52.8,-129.07 -13.39,29.76 17.37,113.35 20.08,154.49 -106.29,37.21 -218.56,87.19 -350.32,85.93 28.9,-27.52 87.54,-106.43 110.01,-157.07 82.66,-186.32 23.17,-345.02 -129.55,-460.63l-60.11 -41.17c-8.62,-6.41 -7.58,-4.69 -10.67,-10.05 -94.24,-46.7 -189.67,-82.63 -305.69,-110.52l-51.44 -523.71c75.7,17.51 340.06,115.88 381.52,156.48zm1367.82 -1271.15c12.58,-53.19 81.68,-137.43 113.72,-169.34 40.62,-40.46 97.78,-96.15 189.95,-89.36 120.93,8.9 253.23,154.5 318.94,244.87 88.48,121.69 134.42,211.15 179.13,383.33 46.87,180.47 31.15,300.79 -64.28,430.31 -140.92,191.28 -390.14,342.83 -688.98,429.68 -229.11,66.58 -466.78,68.35 -643.73,-107.59 -78.47,-78.02 -80.77,-101.58 -86.26,-193.25 13.26,-9.12 2.28,-3.23 19.79,-9.46 51.54,-18.33 61.43,-11.31 131.26,-51.22 194.95,-111.41 248.7,-294.95 292.42,-332.05 31.24,67.69 180.77,186.59 222.12,155.48 -13.56,-42.29 -89.95,-24.63 -179.36,-138.92 -46.14,-58.98 -75.5,-145.51 -76.16,-240.56 -2.05,-295.64 192.83,-364.94 284.09,-258.49 331.13,386.22 125.59,595.89 -61.74,407.47 -40.2,-40.43 -68.44,-98.36 -78.84,-158.22 -4.89,-28.13 0.97,-42.05 -22.98,-49.81 -30.31,45.49 54.87,347.41 300.69,291.95 11.73,75.53 51.53,119.14 132.98,125.38 8.65,156.28 183.64,185.08 260.91,132.33 36.12,-24.65 39.81,-46.57 44.51,-97.57 49.14,-21.37 73.16,-14.38 140.31,-56.59 22.22,-13.96 24.03,-6.89 21.36,-36.67 -33.46,-0.08 -43.4,25.79 -115.42,51.01 -22.86,8.01 -48.58,12.38 -73.51,15.1 -74.82,8.16 -52.35,0.99 -59.73,20.37 18.33,15.04 31.15,10.05 58.57,7.52 12.6,153.18 -292.33,110.04 -245.95,-72 20.46,-80.32 133.12,-149.54 203.09,-183.18 64.11,-30.83 68.8,-12.43 79.31,-43.81 -17.25,-12.31 -32.36,-5.62 -57.58,4.45 -17.65,7.04 -28.45,12.36 -46.28,21.56 -30.63,15.81 -64.13,34.12 -89.44,53 -87.49,65.22 -82.79,78.88 -122.27,155.02 -55.72,1.31 -113.76,-51.14 -103.8,-110.67 2.92,-17.45 25.94,-41.13 34.43,-79.47 14.89,-67.2 98.13,-136.78 161.76,-170.66 22.56,-12.01 51.58,-23.37 78.94,-29.34 31.19,-6.81 70.72,0.66 79.7,-26.9 -32.29,-30.72 -151.92,21.79 -182.85,38.53 -46.25,25.03 -93.03,74.14 -126.69,110.74 -9.85,-12.25 -12.78,-34.3 -17.07,-50.79 -12.66,-48.66 -29.15,-86.94 -55.89,-125.95 17.66,-41.76 79.88,-101.55 115.97,-125.95 101.17,-68.37 152.46,-27.07 166.55,-70.27 -51.5,-39 -207.11,50.22 -273.25,132.83 -8.7,10.87 -15.43,20.11 -24.48,30.33 -23.56,-17.9 -49.7,-59.26 -66.94,-82.69 -11.09,-15.07 -22.01,-31.84 -31.52,-43.12 -13.6,-16.1 -20.02,-19.8 -35.48,-37.35zm-1642.91 47.35c28.18,12.6 59.26,30.95 88.23,47.26 28.58,16.08 55.9,28.71 91.06,44.71 62.4,28.4 123.66,51.71 190.26,72.21 155.99,33.54 300.27,68.18 467.47,21.51 105.49,-29.44 186.97,-75.9 265.02,-141.25 14.95,-12.52 57.97,-52.59 71.16,-57.53 43.3,25.53 68.96,57.57 101.38,87.98 21.55,20.21 74.46,75.54 75.13,107.87 1.39,67.26 -9.14,116.88 6.19,184.1 19.19,84.17 39.47,55.33 -0.18,127.38 -83.2,151.2 -207.24,322.2 -399.22,346.03 -6.17,-59.95 -19.54,-131.3 -34.52,-189.16 -15.35,-59.3 -27.2,-142.38 -64.83,-146.36 -17.99,27.07 22.09,113.49 31.45,152.23 13.37,55.33 23.7,117.52 32.08,171.68 18.47,119.36 21.94,260.76 21.32,386.46 -111.1,39.46 -209.28,85.98 -289.71,174.22 -87.03,-32.97 -340.82,-238.68 -765.23,-361.28l-38.69 -173.52c-32.13,-63.39 -21.58,-96.19 -100.83,-222.74 -69.09,-110.32 -77.89,-98.74 -156.35,-163.37 -53.88,-27.74 -89.67,-55.94 -159.43,-76.67 -204.82,-60.89 -382.25,-14.29 -539.45,108.15 -150.74,117.4 -329.46,370.72 -403.33,532.07 -11.66,-17.42 -12.45,-49 -14.15,-70.12 -29.32,-363.25 -12.39,-739.14 58.48,-1092.25 35.64,-177.59 47.73,-171.76 -6.07,-241.68 -90.1,-117.09 -341.47,-459.65 -378.61,-565 278.8,-8.14 422.65,-35.92 607.06,-177.31 249.52,-191.32 265.94,-459.59 287.74,-497.5 29.7,27.78 63.11,68.82 91.42,103.85 152.77,188.98 291.62,410.84 307.99,667.77 3.99,62.61 4.27,116.63 -2.78,178.62 -5.21,45.83 -27.14,131.6 -23.26,166.92 18.79,45.42 354.27,335.72 426.15,387.21l157.06 107.53zm-549.06 -508.29c5.3,-79.24 34.43,-172.28 30.75,-263.05 -7.27,-179.31 -43.16,-317.82 -124.71,-470.45 -85.97,-160.89 -154.01,-175.1 -102.91,-296.36 37.65,-89.34 141.12,-100.81 206.52,-71.66 100.06,44.59 102.41,183.22 170.29,277.13 90.56,125.29 327.87,94.22 295.74,-151.79 -5.8,-44.44 -53.78,-99.85 3.73,-238.89 55.73,-134.75 168.93,-217.19 321.91,-267.88 65.65,-21.76 62.48,-18.03 117.28,1.81 45.17,16.35 90.7,6.72 137.75,12.46 46.08,5.62 54.92,39.7 89.28,58.88 55.01,30.72 89.44,3.28 123.95,12.99 35.05,9.87 108.96,57.41 143.78,78.62 87.76,53.46 5.94,92.53 93,131.01 90.49,39.99 49.14,-36.4 133.34,83.32 37.83,53.79 35.66,2.72 75.61,148.01 46.94,170.69 43.57,364.63 6.01,534.48 -30.81,139.33 -84.65,167.87 -43.04,214.54 260.55,292.24 159.18,594.86 -105.16,776.28 -281.01,192.85 -636.04,106.73 -915.22,-41.2 -65.29,-34.59 -126.59,-73.24 -185.59,-112.86 -202.54,-136 -301.86,-253.97 -472.31,-415.42zm1521.98 -1328.36c67.91,-35.12 163.79,27.22 193.7,60.51 32.12,35.74 91.54,157.54 16.12,178.66 -76.37,21.39 -77.02,-93.07 -149.88,-112.84 -43.41,-11.78 -74.08,-1.95 -94.28,-41.15 -21.65,-42.01 5.33,-70.18 34.34,-85.18zm-2089.59 -11.94c47.06,-26.71 116.9,-54.32 170.03,-79.87 28.84,-13.86 53.53,-27.7 80.68,-41.54 52.15,-26.59 36.2,-29.45 86.6,-10.6 -8.19,8.5 -7.57,7.74 -19.43,16.87 -99.5,76.65 -139.66,204.07 -121.01,331.45l-103.99 -110.25c-17.88,-21.13 -24.32,-29.7 -47.97,-53.72 -17.07,-17.33 -28.68,-37.72 -44.92,-52.34zm1523.1 -281.27c73.86,-25.88 175.2,20.44 229.02,51.05 69.68,39.62 126.56,152.52 22.28,149.54 -51.86,-1.48 -69.27,-35.57 -97.28,-54.65 -36.81,-25.07 -70,-17.28 -120.07,-21.46 -151.29,-12.61 -109.5,-98.02 -33.95,-124.49zm-603.35 -152.4c33.13,41.09 -22.76,128.04 -51.24,156.97 -111.33,113.09 -377.92,183.13 -529.45,109.45 -33.64,-16.36 -41.49,-37.01 -38.2,-85.58 8.17,-120.59 89.84,-115.3 232.31,-114.89 150.71,0.43 146.21,-46.58 187.76,-45.34 92.14,2.76 112.81,21.89 198.82,-20.6zm1696.14 629.38c-8.79,35.49 -38.4,89.73 -27.19,119.13 36.88,96.69 70.48,137.39 66.65,266.54 -5.41,182.79 -145.66,317.35 -327.73,330.94 38.45,-297.74 41.81,-334.68 -38.37,-628.68 124.92,-17.52 98.87,-247.83 -117.14,-303.56 -74.08,-19.11 -107.29,4.93 -141.1,36.88 -25.27,-27.43 -131.95,-88.47 -177.33,-101.56 23.15,-117.84 -89.15,-182.22 -177.84,-212.4 -91.57,-31.17 -241.49,-43.4 -246.18,104.21 -165.01,35.08 -287.02,100.79 -378.02,234.96 -125.42,184.92 -41.38,308.34 -40.73,362.65 1.2,99.72 -53.53,162.44 -155.89,145.07 -103.42,-17.56 -124.4,-179.22 -182.92,-270.17 -83.45,-129.7 -314.73,-139.01 -352.16,88.4 -87.66,-102.1 -85.33,-84.51 -90.56,-174.41 -4.33,-74.5 12.07,-160.66 47.36,-214.77 103.64,-158.9 137.53,-33.45 409.16,-112.78 118.75,-34.68 263.09,-122.24 277.25,-259.15 7.07,-68.32 -18.04,-29.7 22.01,-99.39 67.87,-118.09 52.39,-220.02 50.47,-335.76 37.73,-13.03 79.67,-37.95 122.14,-54.42 148.29,-57.52 288.52,-47.46 431.17,8.85 210.69,83.17 324.53,326.62 348.21,348.75 32.58,-2.74 74.16,-28.87 135.39,-30.54 177.27,-4.84 331.19,112.16 419.76,242.82 96.67,142.6 168.3,327.94 123.59,508.41zm-2652.51 -182.36c15.42,12.33 17.72,17.07 28.75,30.51l87.2 95.99c60.41,58.79 52.66,71.89 26.7,170.6 -16.49,62.7 -38.06,115.35 -66.28,170.94 -72.84,143.47 -218.74,276.52 -377.17,334.54 -86.7,31.76 -307.71,82.58 -410.2,60.27 -27.38,-5.96 -75.24,-112.81 -92.07,-143.28 -27.79,-50.3 -54.12,-100.22 -83.63,-153.51 -56.72,-102.42 -109.34,-205.16 -147.7,-326.98 -74.17,-235.53 -124.31,-595.42 24.94,-781.93 129.82,-162.22 346.23,-269.64 587.47,-368.66 244.44,-100.34 828.19,-307.4 1106.87,-315.77 85.06,-2.55 130.76,17.66 176.7,59.7 138.47,126.73 209.29,328.38 172.84,518.61 -32.4,169.11 -89.84,216.84 -263.85,199.65 34.1,-59.97 57.15,-90.49 64.51,-175.62 17.22,-199.07 -110.57,-494.92 -212.62,-504.2 5.26,37.64 13.18,25.26 36.51,48.69 83.99,84.35 137.45,254.33 148.99,380.18 7.87,85.82 -10.91,177.93 -61.55,231.25 -65.09,68.53 -129.27,62.88 -244.1,59.79 8.73,-21.82 27.85,-39.46 39.84,-67.44 87.8,-204.8 -88.2,-537.55 -158.46,-531.03 -4.18,24.27 5.76,27.49 19.14,40.72 78.26,77.39 132.16,229.66 135.32,341.65 7.38,261.51 -155.39,239.01 -296.76,237.98 19.34,-48.75 40.92,-67.33 45.94,-135.95 3.33,-45.47 -10.86,-108.48 -23.46,-148.75 -25.41,-81.25 -39.76,-110.2 -82.47,-181.97 -20.9,-35.13 -26.4,-42.51 -39.2,-28.62 -7.55,17.51 12.64,35.46 24.98,56.37 77.39,131.11 152.59,369.78 7.59,463.76 -39.55,25.63 -98.52,38.51 -152.91,26.28 -94.65,-21.28 -143.98,-106.93 -169.49,-195.56 -18.75,-65.17 -29.17,-98.74 41.36,-112.89 11.76,32.35 18.76,62.09 35.72,96.53 27.95,56.78 31.18,72.23 65.38,74.64 -3.63,-40.14 -59.2,-87.93 -89.13,-234.01 -16.66,-81.31 -6.61,-63.45 -27.79,-72.46 -22.35,23.49 2.36,75.73 7.7,107.94 -94.91,22.97 -78.86,87.2 -51.65,172.27 22.27,69.63 58.16,121.38 103.86,153.71 59.95,42.42 125.68,54.78 206.64,27.47 35.34,-11.93 67.93,-42.29 78.66,-43.69 7.58,-0.99 89.63,5.25 112.18,5.29 -23.29,75.11 -39.06,76 -15.04,165.56 -102.97,81.81 -541.61,230.55 -549.64,236.91 6.12,40.93 35.54,22.29 110.49,-3.43 42.34,-14.53 80.93,-29.81 118.88,-42.05z"/>
   <path class="fil3" d="M1877.18 3564.95c9.14,-39.57 67.27,-79.2 85.69,-122.62 -40.42,-61.07 -77.02,-106.63 -111.06,-183.21 -19.29,-43.38 -76.07,-184.69 -38.02,-227.59 76.42,-86.17 364.06,88.19 431.29,117.34 8.2,-6.87 14.2,-11.71 22.83,-22.38 11.98,-14.82 12.11,-14.58 18.08,-29.96l-157.06 -107.53c-71.88,-51.48 -407.36,-341.78 -426.15,-387.21 -3.88,-35.32 18.06,-121.08 23.26,-166.92 7.04,-61.99 6.77,-116.01 2.78,-178.62 -16.37,-256.93 -155.23,-478.79 -307.99,-667.77 -28.31,-35.03 -61.73,-76.07 -91.42,-103.85 -21.8,37.91 -38.22,306.17 -287.74,497.5 -184.41,141.4 -328.26,169.17 -607.06,177.31 37.14,105.35 288.51,447.92 378.61,565 53.81,69.92 41.71,64.09 6.07,241.68 -70.87,353.11 -87.8,729 -58.48,1092.25 1.7,21.12 2.49,52.7 14.15,70.12 73.88,-161.36 252.6,-414.68 403.33,-532.07 157.21,-122.44 334.63,-169.03 539.45,-108.15 69.76,20.74 105.54,48.94 159.43,76.67z"/>
   <path class="fil1" d="M2023.87 2330.66c-29.08,-180.99 14.47,-355.98 219.99,-394.07 187.48,-34.74 338.47,95.01 429.4,176.24 33.96,30.34 44.27,41.11 74.61,74.66 128.46,142.06 120.51,102.96 316.49,151.04 184.08,45.17 275.46,130.53 304.7,318.8 24.67,158.81 -78.51,310.69 -245.21,368.6 -162.84,56.57 -373.56,20.78 -527.7,-28.95 -196.04,-63.24 -411.78,-253.89 -497.82,-431.36 -35.37,-72.96 -61.25,-152.8 -74.45,-234.97zm926.61 -140.87c-9.57,-20.58 3.92,-24.37 27.54,-41.73 16.03,-11.79 23.52,-16.81 40.87,-33.72 134.74,-131.28 -20.24,-228.66 8.03,-337.61 18.71,-72.11 60.51,-164.79 102.97,-202.26 184.62,-162.92 349.06,183.1 222.13,513.53 -65.16,169.62 -219.15,253.64 -311.07,45.56 -26.94,12.76 -62.42,63.59 -90.46,56.23zm-274.04 -960.6c189.51,-41.82 296.65,357.26 166.18,613.96 -28.46,56 -82.94,134.92 -157.14,141.56 -176.85,15.84 -231.99,-262.46 -221.18,-370.77 13.83,-138.56 51.16,-349.24 212.14,-384.76zm-939.5 1359.05c170.45,161.45 269.77,279.42 472.31,415.42 59,39.62 120.3,78.27 185.59,112.86 279.18,147.93 634.21,234.05 915.22,41.2 264.34,-181.42 365.71,-484.04 105.16,-776.28 -41.61,-46.67 12.23,-75.21 43.04,-214.54 37.56,-169.84 40.93,-363.79 -6.01,-534.48 -39.95,-145.28 -37.78,-94.21 -75.61,-148.01 -84.2,-119.73 -42.85,-43.33 -133.34,-83.32 -87.06,-38.48 -5.24,-77.55 -93,-131.01 -34.81,-21.21 -108.72,-68.74 -143.78,-78.62 -34.5,-9.72 -68.94,17.73 -123.95,-12.99 -34.36,-19.19 -43.19,-53.26 -89.28,-58.88 -47.06,-5.74 -92.58,3.89 -137.75,-12.46 -54.8,-19.84 -51.63,-23.57 -117.28,-1.81 -152.98,50.69 -266.19,133.13 -321.91,267.88 -57.51,139.04 -9.53,194.44 -3.73,238.89 32.13,246.01 -205.18,277.08 -295.74,151.79 -67.88,-93.91 -70.23,-232.54 -170.29,-277.13 -65.4,-29.15 -168.88,-17.68 -206.52,71.66 -51.09,121.25 16.95,135.46 102.91,296.36 81.55,152.63 117.45,291.14 124.71,470.45 3.68,90.77 -25.45,183.81 -30.75,263.05z"/>
   <path class="fil4" d="M2204.96 419.79c1.91,115.75 17.39,217.67 -50.47,335.76 -40.05,69.69 -14.94,31.07 -22.01,99.39 -14.16,136.92 -158.5,224.47 -277.25,259.15 -271.63,79.33 -305.52,-46.12 -409.16,112.78 -35.3,54.11 -51.7,140.28 -47.36,214.77 5.23,89.9 2.9,72.31 90.56,174.41 37.43,-227.41 268.71,-218.1 352.16,-88.4 58.52,90.94 79.49,252.61 182.92,270.17 102.37,17.38 157.09,-45.35 155.89,-145.07 -0.65,-54.31 -84.69,-177.72 40.73,-362.65 91,-134.17 213.02,-199.88 378.02,-234.96 4.69,-147.62 154.61,-135.38 246.18,-104.21 88.69,30.19 200.99,94.57 177.84,212.4 45.37,13.09 152.06,74.13 177.33,101.56 33.82,-31.95 67.02,-55.99 141.1,-36.88 216.01,55.74 242.07,286.04 117.14,303.56 80.19,294 76.82,330.94 38.37,628.68 182.07,-13.59 322.32,-148.15 327.73,-330.94 3.82,-129.15 -29.77,-169.86 -66.65,-266.54 -11.22,-29.4 18.4,-83.64 27.19,-119.13 44.71,-180.47 -26.92,-365.8 -123.59,-508.41 -88.57,-130.66 -242.49,-247.66 -419.76,-242.82 -61.23,1.67 -102.81,27.8 -135.39,30.54 -23.69,-22.13 -137.53,-265.58 -348.21,-348.75 -142.65,-56.31 -282.88,-66.37 -431.17,-8.85 -42.47,16.48 -84.41,41.39 -122.14,54.42z"/>
   <path class="fil5" d="M3832.5 1329.13c-0.7,44.92 -5,87.81 -14.21,126.49 -7.16,30.05 -38.18,86.7 -17.96,109.1 29.47,14.45 44.55,0.02 101.99,-11.57 446.13,-89.98 927.07,-18.68 1309.57,225.47 41.92,26.75 181.72,123.24 215.77,157.29 21.61,21.6 40.09,31.94 65.33,56.85 23.03,22.73 39.11,40.26 60.07,62.11 51.69,53.89 68.12,67.4 118.18,132.59 17.99,23.43 35.19,45.18 52.82,69.52 34.27,47.32 66.66,97.85 97.1,153.81 135.27,248.75 208.83,465.6 232.44,760.3 23.65,295.18 -38.64,589.03 -143.39,835.85 -61.86,145.76 -230.92,417.63 -344.13,517.23 -29.04,25.55 -36.99,34.95 -64.2,65.01 -47.79,52.82 -220.1,178.14 -278.39,216.68 -205.58,135.95 -478.44,226.83 -731.92,258.19 -112,13.86 -234.89,15.72 -350.73,9.72 -33.46,-1.73 -87.67,-19.01 -110.54,-6.21l67.41 177.32c77.8,-2.12 153.94,-12.4 242.79,-10.43 90.2,2 149.04,21.47 230.07,38.7 11.92,-12.05 169.15,-37.29 200.62,-45 248.77,-60.96 570.73,-219.92 761.73,-384.31 116.26,-100.06 213.89,-193.42 315.06,-322.49 552.49,-704.91 575.11,-1702.39 -6.82,-2456.31 -39.97,-51.79 -73.51,-92.41 -119.41,-138.2 -117.76,-117.47 -139.85,-140.78 -269.77,-238.89 -169.87,-128.28 -438.51,-265.43 -692.42,-324.95 -219.51,-51.45 -468.01,-72.84 -695.53,-48.33 -78.82,8.49 -151.03,25.04 -229.39,36.93l-2.14 -22.47z"/>
   <path class="fil1" d="M3928.91 3049.18c15.46,17.55 21.88,21.25 35.48,37.35 9.52,11.27 20.44,28.05 31.52,43.12 17.24,23.43 43.38,64.79 66.94,82.69 9.06,-10.23 15.78,-19.47 24.48,-30.33 66.15,-82.61 221.75,-171.83 273.25,-132.83 -14.09,43.2 -65.38,1.9 -166.55,70.27 -36.1,24.4 -98.31,84.19 -115.97,125.95 26.74,39 43.23,77.29 55.89,125.95 4.29,16.49 7.22,38.55 17.07,50.79 33.66,-36.6 80.44,-85.71 126.69,-110.74 30.93,-16.73 150.56,-69.25 182.85,-38.53 -8.99,27.55 -48.51,20.09 -79.7,26.9 -27.36,5.97 -56.38,17.33 -78.94,29.34 -63.64,33.87 -146.87,103.46 -161.76,170.66 -8.5,38.34 -31.52,62.02 -34.43,79.47 -9.95,59.53 48.08,111.99 103.8,110.67 39.48,-76.13 34.78,-89.79 122.27,-155.02 25.32,-18.87 58.81,-37.19 89.44,-53 17.83,-9.2 28.63,-14.52 46.28,-21.56 25.22,-10.06 40.34,-16.76 57.58,-4.45 -10.51,31.38 -15.19,12.98 -79.31,43.81 -69.97,33.65 -182.63,102.86 -203.09,183.18 -46.38,182.05 258.55,225.18 245.95,72 -27.43,2.53 -40.24,7.53 -58.57,-7.52 7.38,-19.38 -15.09,-12.22 59.73,-20.37 24.93,-2.72 50.65,-7.09 73.51,-15.1 72.02,-25.22 81.96,-51.09 115.42,-51.01 2.67,29.78 0.86,22.71 -21.36,36.67 -67.16,42.21 -91.17,35.22 -140.31,56.59 -4.7,51.01 -8.39,72.93 -44.51,97.57 -77.28,52.74 -252.26,23.94 -260.91,-132.33 -81.45,-6.24 -121.25,-49.84 -132.98,-125.38 -245.81,55.46 -330.99,-246.45 -300.69,-291.95 23.95,7.76 18.09,21.68 22.98,49.81 10.4,59.86 38.65,117.79 78.84,158.22 187.32,188.41 392.87,-21.25 61.74,-407.47 -91.26,-106.44 -286.14,-37.14 -284.09,258.49 0.66,95.05 30.02,181.57 76.16,240.56 89.4,114.29 165.8,96.63 179.36,138.92 -41.35,31.11 -190.88,-87.79 -222.12,-155.48 -43.72,37.1 -97.47,220.65 -292.42,332.05 -69.83,39.91 -79.72,32.89 -131.26,51.22 -17.51,6.23 -6.53,0.34 -19.79,9.46 5.49,91.66 7.8,115.23 86.26,193.25 176.96,175.94 414.62,174.17 643.73,107.59 298.85,-86.85 548.07,-238.4 688.98,-429.68 95.42,-129.53 111.14,-249.84 64.28,-430.31 -44.71,-172.18 -90.65,-261.65 -179.13,-383.33 -65.71,-90.37 -198.01,-235.96 -318.94,-244.87 -92.17,-6.79 -149.34,48.9 -189.95,89.36 -32.04,31.91 -101.14,116.15 -113.72,169.34z"/>
   <path class="fil6" d="M1016.22 4917.35c4.62,-41.5 -7.45,-138.43 -10.03,-181.95 -3.74,-63.22 -3.27,-131.36 -2.42,-194.95l23.29 -267.99c7.42,-42.44 -1.06,-64.27 41.21,-65.28 5.59,42.57 -58.3,382.53 -22.03,581.01 80.03,-102.78 319.97,-235.1 461.07,-287.09 205.09,-75.57 413.43,-105.32 653.91,-106.16 15.32,-69.66 -38.83,-356.88 -58.43,-424.15 -38.35,-131.66 -101.03,-241.37 -173.08,-321.89 -65.51,-73.21 -227.24,-142.12 -342.56,-152.31 -273.85,-24.21 -471.76,176.69 -610.29,372.76 -74.67,105.69 -130.13,172.11 -185.36,309.53 -49.41,122.93 111.6,647.15 224.73,738.47z"/>
   <path class="fil6" d="M2536.7 4798.08c3.09,5.36 2.05,3.64 10.67,10.05l60.11 41.17c152.72,115.61 212.21,274.31 129.55,460.63 -22.47,50.65 -81.11,129.56 -110.01,157.07 131.76,1.26 244.03,-48.72 350.32,-85.93 -2.7,-41.13 -33.47,-124.73 -20.08,-154.49 41,-3.66 28.44,23.93 52.8,129.07 7.97,34.41 18.99,121.51 35.37,143.65 20.12,-16.77 22.21,-27.41 39.87,-44.55l135.63 -128.88c68.34,-55.64 125.47,-103.5 208.77,-150.69 76.39,-43.27 148.26,-82.07 237.97,-114.96 161.15,-59.08 195.45,-45.2 267,-64.24l21.06 -8.14c-76.76,-212.5 -231.9,-463.17 -368.95,-561.33 -169.06,-121.09 -334.34,-123.18 -516.81,-3.8 -51.56,33.73 -79.51,66.01 -130.93,103.09 -42.7,-11.27 -314.23,-200.55 -377.97,-205.47 11.22,33.63 12.66,142.43 9.17,186.9 -1.83,23.31 -5.6,28.46 -6.41,53.7 -3.59,111.5 -27.14,207.42 -27.14,237.15z"/>
   <path class="fil7" d="M3276.41 6286c30,53.78 114.76,95.33 197.87,108.99 98.41,16.17 182.87,9.21 281.16,-0.79 431.65,-43.9 1042.33,-234.78 1043.18,-763.65 -66.39,-39.78 -88.46,-87.51 -197.25,-116.32 -399.39,-105.79 -1015.3,244.76 -1243.4,551.83 -22.28,29.99 -40.07,62.18 -55.01,100.53 -8.16,20.94 -13.86,35.42 -17.11,56.53 -5.8,37.67 2.57,47.39 -9.43,62.87z"/>
   <path class="fil8" d="M3826 3021.44l67.4 4.58c32.86,-34.47 104.9,-206.84 243.8,-254.97 162.65,-56.36 271.75,62.79 343.84,131.41 73.63,70.1 155.63,182.32 208.75,292.68 45.2,93.91 104.55,289.74 103.14,403.12 -4.66,373.53 -496.69,616.59 -793.2,709.43 -206.14,64.54 -249.03,53.4 -443.8,28.92 13.95,24.87 7.23,12.74 44.66,35.07l166.54 77.24c216.37,76.86 618.5,43.04 825.62,-70.91 58.12,-31.97 111.37,-74.62 162.59,-114.81l105.8 -97.47c47.97,-61.97 53.42,-50.57 110.5,-133.56 11.47,-16.67 21.1,-28.88 34.08,-47.06 60.22,-84.35 123.5,-252.76 131,-358.99 16.97,-240.63 -38.19,-437.89 -172.35,-617.18 -18.48,-24.7 -15.13,-25.81 -36.2,-45.05 -71.24,-65.03 -143.63,-128.72 -229.07,-177.43 -199.52,-113.75 -511.14,-144.16 -694.44,1.41 -111.08,88.22 -143.68,200.15 -151.82,211.49 -26.81,37.36 18.9,-14.11 -10.8,10.79l-16.03 11.29z"/>
   <path class="fil3" d="M2655.55 3260.72l12.26 86.72c26.72,15.27 584.49,217.84 376.4,331.01 -35.07,19.08 -150.72,70.72 -184.21,79.56 7.32,37.82 31.28,83.24 45.02,123.1 24.78,71.85 109.17,332.55 31.59,366.02 -72.15,9.71 -109.76,-47.71 -144.13,-77.52l-222.03 -218.68c-35.66,-35.75 -71.63,-75.53 -108.92,-109.2l-327.17 109.32 38.69 173.52c424.41,122.6 678.2,328.32 765.23,361.28 80.42,-88.24 178.61,-134.76 289.71,-174.22 0.62,-125.7 -2.84,-267.1 -21.32,-386.46 -8.38,-54.16 -18.71,-116.35 -32.08,-171.68 -9.36,-38.74 -49.43,-125.16 -31.45,-152.23 37.64,3.98 49.48,87.06 64.83,146.36 14.97,57.85 28.35,129.21 34.52,189.16 191.98,-23.83 316.02,-194.82 399.22,-346.03 39.65,-72.05 19.38,-43.21 0.18,-127.38 -15.33,-67.22 -4.8,-116.85 -6.19,-184.1 -0.67,-32.33 -53.59,-87.66 -75.13,-107.87 -32.42,-30.41 -58.08,-62.44 -101.38,-87.98 -13.19,4.94 -56.21,45.02 -71.16,57.53 -78.05,65.35 -159.53,111.81 -265.02,141.25 -167.2,46.67 -311.47,12.03 -467.47,-21.51z"/>
   <path class="fil9" d="M1877.18 3564.95c78.45,64.63 87.26,53.06 156.35,163.37 79.25,126.55 68.7,159.35 100.83,222.74l327.17 -109.32c37.29,33.67 73.26,73.44 108.92,109.2l222.03 218.68c34.36,29.8 71.98,87.23 144.13,77.52 77.58,-33.47 -6.82,-294.17 -31.59,-366.02 -13.75,-39.86 -37.7,-85.29 -45.02,-123.1 33.49,-8.85 149.14,-60.49 184.21,-79.56 208.09,-113.18 -349.68,-315.74 -376.4,-331.01l-12.26 -86.72c-66.6,-20.5 -127.86,-43.82 -190.26,-72.21 -35.15,-16 -62.48,-28.63 -91.06,-44.71 -28.98,-16.31 -60.05,-34.66 -88.23,-47.26 -5.98,15.38 -6.11,15.14 -18.08,29.96 -8.62,10.68 -14.63,15.52 -22.83,22.38 -67.23,-29.15 -354.87,-203.52 -431.29,-117.34 -38.05,42.9 18.74,184.21 38.02,227.59 34.04,76.58 70.64,122.14 111.06,183.21 -18.42,43.42 -76.56,83.05 -85.69,122.62z"/>
   <path class="fil7" d="M1260.78 5606.96c8.94,20 55.91,50.71 73.78,60.25 28.56,15.24 58.91,29.49 89.95,39.48 185.42,59.7 526.47,26.88 704.73,-14.38 221.8,-51.33 543.85,-222.51 595.73,-453.64 -11.02,11.22 -15.14,-14.01 -9.62,13.12 -25.31,-131.25 -203.02,-202.84 -349.06,-229.1 -306.95,-55.19 -637.07,74.09 -868.98,248.17 -58.18,43.67 -99.89,89.34 -147.77,136.95 -77.37,76.93 -80.28,114.67 -88.77,199.15z"/>
   <path class="fil10" d="M3748.77 3045.99c14.75,-2.38 5.44,-0.62 20.3,-5.74 2,-0.69 16.47,-6.4 19.5,-7.53 17.27,-6.46 20.68,-8.32 37.43,-11.29l16.03 -11.29c29.7,-24.9 -16.01,26.57 10.8,-10.79 8.14,-11.34 40.74,-123.27 151.82,-211.49 183.29,-145.57 494.92,-115.16 694.44,-1.41 85.43,48.71 157.83,112.4 229.07,177.43 21.08,19.24 17.72,20.35 36.2,45.05 134.16,179.29 189.33,376.55 172.35,617.18 -7.49,106.23 -70.78,274.63 -131,358.99 -12.98,18.18 -22.62,30.4 -34.08,47.06 -57.08,82.98 -62.53,71.58 -110.5,133.56l-105.8 97.47c-51.23,40.19 -104.47,82.84 -162.59,114.81 -207.12,113.94 -609.25,147.77 -825.62,70.91l-166.54 -77.24c-37.43,-22.32 -30.71,-10.19 -44.66,-35.07 -20.93,-10.53 -58.02,-19.92 -84.88,-31.62 -31.73,-13.82 -53.52,-26.32 -78.79,-43.43 -89.03,-60.28 -94.3,-86.44 -130.29,-116.26l0.8 157.67c139.18,-10.96 235.38,20.7 325.47,81.41 118.23,79.67 173.88,185.87 203.81,205.77 105.89,46.78 282.31,17.01 394.15,23.5 14.76,38.84 34.01,64.37 57.43,104.7 16.1,27.72 46.82,95.2 63.42,96.63 28.55,2.45 100,-169.8 122.18,-214.03 30.03,-59.88 39.43,-44.55 101.78,-66.68 94.51,-33.54 143.09,-56.63 227.63,-104.72 48.74,-27.72 57.4,-41.48 93.68,-69.39l86.88 -75.86c26.21,-24.85 46.59,-62.05 80.04,-80.95l105.72 36.77c0.79,0.2 12.34,9.37 33.82,-3.02 5.48,-64.89 -73.3,-129.9 -35.18,-196.09 29.21,-50.71 59.58,-125.86 77.1,-187.54 60.88,-214.29 31.34,-294.31 26.92,-482.74l130.68 -56.71c31.33,-11.41 28.25,-7.06 34.04,-27.58 -1.06,-24.04 -21.66,-17.02 -72.9,-36.62 -188.38,-72.07 -104.49,-0.92 -178.15,-145.66 -159.66,-313.68 -386.98,-482.22 -779.97,-525.97 -12.21,-19.82 -25.31,-39.29 -36.14,-55.11 -8.37,-12.22 -11.19,-15.85 -19.54,-27.65 -17.76,-25.11 0.97,-11.2 -25.71,-27.41 -19.43,8.9 -10.01,-8.7 -35.63,44.77 -49.88,104.1 -34.98,70.34 -113.82,94.36 -145.61,44.37 -236.36,123.02 -312.88,244.94 -16.87,26.88 -84.48,165.4 -68.79,193.91z"/>
   <path class="fil11" d="M3858.95 1768.28c1.13,42.2 -6.71,105.99 -4.13,135.34l2.48 19.58c238.89,-113.62 567.08,-124.13 840.81,-70.23 277.8,54.7 567.52,198.53 734.07,363.43 13.93,13.79 16.56,20.18 29.13,31.65 13.45,12.28 19.7,14.68 33.52,27.52 24.81,23.04 32.7,40.17 58.57,63.32 71.45,63.94 228.52,269.53 266.2,343.9 119.94,236.78 178.07,512.2 192.94,784.46l4.57 -10.65c24.5,-259.89 -14.17,-520.44 -90.22,-739.85 -54.19,-156.33 -130.84,-290.7 -215.74,-420.29 -15.82,-24.15 -31.32,-40.88 -46.9,-61.56l-97.12 -113.2c-17.1,-15.64 -10.99,-12.84 -24.29,-30.27 -21.87,-28.68 -113.4,-93.45 -146.86,-117.7 -245.17,-177.72 -655.5,-299.21 -983.01,-298.72l-64.3 -96.66c-44.48,-59.77 -59.85,-8.52 -114.19,63.74 -67.62,89.92 -56.13,22.78 -245.39,83.17l-130.12 43z"/>
   <path class="fil12" d="M3800.33 1564.72c23.93,56.75 49.76,132.53 58.62,203.55l130.12 -43c189.26,-60.4 177.77,6.74 245.39,-83.17 54.34,-72.25 69.71,-123.51 114.19,-63.74l64.3 96.66c327.51,-0.49 737.85,121 983.01,298.72 33.46,24.25 124.99,89.02 146.86,117.7 13.3,17.43 7.19,14.64 24.29,30.27l97.12 113.2c15.58,20.67 31.08,37.41 46.9,61.56 84.9,129.59 161.55,263.96 215.74,420.29 76.06,219.41 114.72,479.95 90.22,739.85 -11.81,247.79 -127.91,544.05 -236.8,726.86 -6.27,10.53 -13.66,23.8 -20.14,34.24l-118.62 165.7c-9.55,12.03 -13.8,19.8 -23.26,31.03l-53.34 62c-63.54,55.74 -107.94,112.28 -173.6,164.37l-34.44 26.19c-87.1,69.08 -136.06,100.58 -235.47,157.74 -214.37,123.27 -441.07,187.45 -692.68,212.84 -82.78,8.35 -351.02,11.49 -419.11,-15.82l20.67 45.81c22.87,-12.8 77.08,4.48 110.54,6.21 115.83,6 238.73,4.14 350.73,-9.72 253.48,-31.36 526.34,-122.24 731.92,-258.19 58.28,-38.54 230.6,-163.87 278.39,-216.68 27.2,-30.06 35.15,-39.46 64.2,-65.01 113.21,-99.6 282.26,-371.47 344.13,-517.23 104.75,-246.82 167.03,-540.67 143.39,-835.85 -23.61,-294.69 -97.17,-511.55 -232.44,-760.3 -30.43,-55.96 -62.82,-106.49 -97.1,-153.81 -17.63,-24.34 -34.83,-46.09 -52.82,-69.52 -50.06,-65.19 -66.48,-78.7 -118.18,-132.59 -20.96,-21.85 -37.04,-39.38 -60.07,-62.11 -25.24,-24.91 -43.72,-35.25 -65.33,-56.85 -34.05,-34.05 -173.86,-130.54 -215.77,-157.29 -382.5,-244.15 -863.44,-315.44 -1309.57,-225.47 -57.44,11.58 -72.51,26.02 -101.99,11.57z"/>
   <path class="fil13" d="M1085.24 5152.32l153.17 -140.17c21.11,-18.74 34.9,-29.42 56.37,-45.44 73.81,-55.1 151.48,-101.21 246.73,-146.44 216.48,-102.8 393.6,-128.94 656.74,-136.2l-25.4 -234.64c-7.16,-32.08 4.73,-16.02 -15.95,-26.71 -287.23,-0.13 -547.82,48.64 -771.48,160.18 -56.38,28.11 -97.32,52.72 -145.89,84.46 -39.33,25.7 -107.87,75.67 -134.07,103.45 -71.42,75.71 -61.47,28.68 -49.46,172.99 3.73,44.77 12.24,175.39 29.22,208.53z"/>
   <path class="fil14" d="M2106.78 2028.82c-56.31,115.39 -78.06,142.13 -52.31,315.67 16.73,112.76 60.42,200.73 112.78,280.84 78.47,120.07 297.18,334.63 445.78,342.93 23.85,-45.49 44.08,-61.39 61.66,-126.78 41.49,-154.35 -20.4,-308.53 -90.97,-435.65 -42.26,-76.13 -33.68,-44.14 -112.71,-77.17 -88.26,-36.88 -149.93,-89.18 -204.46,-161.89 -84.1,-112.12 -24.54,-115.14 -159.77,-137.96z"/>
   <path class="fil13" d="M3124.81 5897.39c8.95,-7.92 122.77,-150.11 188.24,-215.03 157.76,-156.47 556.35,-379.03 751.34,-429.41l-96.49 -231.03c-241.05,2.21 -525.04,165.51 -664.4,271.24 -60.45,45.86 -137.17,113.94 -184.95,167.69 -72,80.99 -73.74,61.25 -52.14,150.16 17.06,70.19 54.85,232.9 58.4,286.38z"/>
   <path class="fil15" d="M2592.11 2360.82c21.96,63.95 166.83,249.27 109.96,481.1 -10.2,41.6 -23.76,75.41 -46.1,109.65l-15.85 29.82c188.43,66.15 472.12,79.64 619.55,-70.65 164.71,-167.9 60.94,-476.47 -106.99,-513.13 -19.12,46.39 -71.61,107.64 -102.38,141.29 -84.75,92.67 -256.42,-7.37 -336.42,-66.84 -52.71,-39.19 -106.83,-101.18 -121.77,-111.24z"/>
   <path class="fil3" d="M1260.78 5606.96c8.48,-84.48 11.39,-122.22 88.77,-199.15 47.88,-47.61 89.59,-93.28 147.77,-136.95 231.91,-174.09 562.04,-303.37 868.98,-248.17 146.04,26.26 323.75,97.85 349.06,229.1 -5.52,-27.12 -1.4,-1.9 9.62,-13.12 19.57,-39.24 17.94,-111.91 -5.66,-148.69 -19.08,-29.74 -74.39,-68.43 -109.05,-87.45 -231.66,-127.14 -568.16,-143.76 -812.71,-34.73 -32.37,14.43 -102.52,54.98 -134.87,59.38 -42.61,-86.18 -14.56,-126.72 -7.28,-216.6 -34.95,10.11 -147.26,48.35 -160.66,84.51 -25.26,68.16 -20.76,144.84 -20.15,221.54 -6.57,26.49 -169.88,119.96 -238.69,211.57 -34.1,45.4 -87,98.37 -70.86,141.85 16.03,43.19 69.13,122.46 95.72,136.91z"/>
   <path class="fil3" d="M3276.41 6286c12,-15.48 3.63,-25.2 9.43,-62.87 3.25,-21.11 8.95,-35.59 17.11,-56.53 14.94,-38.35 32.74,-70.55 55.01,-100.53 228.1,-307.07 844.01,-657.62 1243.4,-551.83 108.79,28.82 130.86,76.54 197.25,116.32 -7.23,-98.56 -23.87,-113.76 -93.31,-152.74 -194.87,-109.39 -436.66,-73.26 -641.8,-31.1 -14.63,-82.29 70.79,-137.87 96.79,-173.37 -72,7.04 -130.54,22.93 -188.66,77.5 -47.58,44.67 -87.93,82.19 -88.64,175.17 -160.06,48.46 -436.27,259.79 -549.61,400.42 -30.05,37.28 -52.61,68.02 -78.47,111.27 -73.3,122.6 -58.96,135.82 -21.01,198.88 13.82,22.97 22.18,40.02 42.49,49.42z"/>
   <path class="fil16" d="M2140.41 2012.22c110.75,18.8 69.61,11.26 117.95,95.09 48,83.24 134.22,159.47 223.06,197.13 105.58,44.76 108.11,4.49 155.61,61.37 51.22,61.34 149.21,134.95 251.21,169.92 74.58,25.57 109.45,19.94 149.68,-22.56 22.04,-23.28 80.33,-94.07 90.64,-130.6 -58.59,-9.37 -243.25,-51.58 -289.88,-75.83 -94.27,-49.01 -279.68,-366.17 -564.35,-347.38 -39.54,2.61 -116.4,14.34 -133.92,52.85z"/>
   <path class="fil16" d="M2617.93 1541.62c97.38,-37.39 106.89,213.15 13.52,254.04 -101.29,44.35 -112.5,-216.03 -13.52,-254.04zm251.94 77.29c38.87,-265.3 -174.95,-520.58 -317.96,-249.3 -117.59,223.08 -51.44,586.35 113.73,589.83 74.93,1.58 125.41,-70.78 150.99,-121.84 42.64,-85.09 38.96,-121.27 53.24,-218.7z"/>
   <path class="fil17" d="M2536.7 4798.08c0,-29.73 23.56,-125.65 27.14,-237.15 0.81,-25.24 4.58,-30.4 6.41,-53.7 3.49,-44.47 2.05,-153.26 -9.17,-186.9 -41.45,-40.6 -305.82,-138.98 -381.52,-156.48l51.44 523.71c116.02,27.89 211.45,63.82 305.69,110.52z"/>
   <path class="fil18" d="M2592.11 2360.82c14.94,10.05 69.06,72.05 121.77,111.24 80,59.47 251.67,159.51 336.42,66.84 30.77,-33.65 83.26,-94.9 102.38,-141.29 167.92,36.66 271.7,345.23 106.99,513.13 -147.43,150.29 -431.11,136.8 -619.55,70.65l15.85 -29.82c22.34,-34.24 35.89,-68.05 46.1,-109.65 56.87,-231.83 -87.99,-417.15 -109.96,-481.1zm-485.33 -332c135.23,22.81 75.67,25.84 159.77,137.96 54.54,72.7 116.2,125 204.46,161.89 79.03,33.03 70.45,1.04 112.71,77.17 70.57,127.12 132.46,281.3 90.97,435.65 -17.58,65.39 -37.81,81.29 -61.66,126.78 -148.6,-8.3 -367.31,-222.87 -445.78,-342.93 -52.36,-80.12 -96.05,-168.09 -112.78,-280.84 -25.75,-173.54 -4,-200.28 52.31,-315.67zm33.63 -16.6c17.52,-38.51 94.38,-50.24 133.92,-52.85 284.67,-18.79 470.08,298.37 564.35,347.38 46.63,24.25 231.29,66.45 289.88,75.83 -10.31,36.53 -68.61,107.32 -90.64,130.6 -40.23,42.5 -75.1,48.13 -149.68,22.56 -102,-34.97 -199.99,-108.58 -251.21,-169.92 -47.49,-56.88 -50.03,-16.62 -155.61,-61.37 -88.84,-37.66 -175.06,-113.9 -223.06,-197.13 -48.34,-83.83 -7.2,-76.29 -117.95,-95.09zm-116.55 318.44c13.2,82.17 39.08,162 74.45,234.97 86.04,177.48 301.78,368.12 497.82,431.36 154.14,49.72 364.85,85.51 527.7,28.95 166.7,-57.91 269.88,-209.79 245.21,-368.6 -29.25,-188.27 -120.63,-273.63 -304.7,-318.8 -195.98,-48.09 -188.03,-8.98 -316.49,-151.04 -30.34,-33.56 -40.65,-44.32 -74.61,-74.66 -90.93,-81.23 -241.91,-210.98 -429.4,-176.24 -205.52,38.08 -249.07,213.08 -219.99,394.07z"/>
   <path class="fil16" d="M3072.57 1873.48c19.25,-32.36 31.74,-75.41 75.31,-75.19 64.16,0.32 84.05,129.1 39.4,213.31 -22.31,42.09 -51.14,54.8 -97.48,37.02 -12.51,37.28 -35.2,49.09 -21.6,82.3 41.36,101 125.95,131.92 199.46,49.08 72,-81.13 108.87,-223.43 101.48,-364.02 -13.16,-250.36 -177,-369.97 -290.82,-109.75 -27.27,62.34 -50.83,126.43 -5.75,167.26z"/>
   <path class="fil1" d="M2089.08 814.27c-86,42.49 -106.68,23.37 -198.82,20.6 -41.55,-1.25 -37.06,45.77 -187.76,45.34 -142.46,-0.41 -224.13,-5.69 -232.31,114.89 -3.29,48.57 4.56,69.23 38.2,85.58 151.53,73.69 418.12,3.65 529.45,-109.45 28.48,-28.93 84.37,-115.87 51.24,-156.97z"/>
   <path class="fil1" d="M3180.91 6112.93c58.44,-162.73 192.92,-291.64 320.27,-398.48 93.1,-78.1 246.56,-161.3 355.74,-213.86 13.63,-90.95 37.4,-104.97 78.66,-159.2 -66.27,20.22 -208.55,94.02 -270.25,130.33 -90.4,53.21 -170.08,103.3 -243.42,163.49 -82.12,67.39 -137.78,116.68 -204.18,202.72 -18.85,24.43 -78.23,91.65 -80.76,119.61 -2.47,27.26 27.39,133.6 43.93,155.39z"/>
   <path class="fil18" d="M3072.57 1873.48c-45.08,-40.84 -21.52,-104.92 5.75,-167.26 113.82,-260.22 277.67,-140.61 290.82,109.75 7.39,140.59 -29.49,282.89 -101.48,364.02 -73.51,82.85 -158.1,51.92 -199.46,-49.08 -13.6,-33.21 9.09,-45.02 21.6,-82.3 46.34,17.78 75.17,5.07 97.48,-37.02 44.64,-84.22 24.76,-212.99 -39.4,-213.31 -43.57,-0.22 -56.06,42.84 -75.31,75.19zm-122.09 316.32c28.05,7.36 63.52,-43.47 90.46,-56.23 91.92,208.07 245.91,124.05 311.07,-45.56 126.93,-330.43 -37.51,-676.45 -222.13,-513.53 -42.46,37.47 -84.25,130.15 -102.97,202.26 -28.27,108.95 126.72,206.33 -8.03,337.61 -17.36,16.91 -24.84,21.93 -40.87,33.72 -23.62,17.36 -37.11,21.15 -27.54,41.73z"/>
   <path class="fil1" d="M1090.47 5196.07c3.87,49.58 30.53,166.73 51.03,203.04 110.33,-135.57 116.39,-176.65 303.92,-285.98 -3.13,-131.76 7.77,-103.9 17.74,-212.6 -166.49,71.4 -312.42,253.08 -372.69,295.55z"/>
   <path class="fil18" d="M2869.87 1618.92c-14.28,97.44 -10.6,133.61 -53.24,218.7 -25.58,51.06 -76.06,123.42 -150.99,121.84 -165.17,-3.48 -231.32,-366.76 -113.73,-589.83 143,-271.28 356.83,-16 317.96,249.3zm-193.43 -389.73c-160.98,35.52 -198.32,246.2 -212.14,384.76 -10.81,108.31 44.33,386.61 221.18,370.77 74.2,-6.64 128.68,-85.56 157.14,-141.56 130.47,-256.7 23.33,-655.78 -166.18,-613.96z"/>
   <path class="fil4" d="M2692.43 966.67c-75.56,26.47 -117.34,111.88 33.95,124.49 50.07,4.17 83.26,-3.61 120.07,21.46 28.01,19.08 45.43,53.17 97.28,54.65 104.28,2.97 47.39,-109.92 -22.28,-149.54 -53.82,-30.6 -155.16,-76.93 -229.02,-51.05z"/>
   <path class="fil4" d="M3258.92 1259.88c-29.01,15 -55.99,43.18 -34.34,85.18 20.2,39.2 50.88,29.37 94.28,41.15 72.85,19.77 73.5,134.23 149.88,112.84 75.42,-21.12 16,-142.92 -16.12,-178.66 -29.92,-33.29 -125.79,-95.63 -193.7,-60.51z"/>
   <path class="fil1" d="M1688.07 4796.86c-10.34,72.73 -27.97,101.63 -15.72,187.74 22.62,2.41 91.76,-40.05 122.78,-53.14 51.15,-21.6 90.51,-30.52 144,-45.85 -23.85,-96.19 -141.33,-117.75 -251.05,-88.75z"/>
   <path class="fil1" d="M4093.05 5411.82c44.97,-1.15 121.26,-39.86 275.02,-39.87l73.75 -0.01c-4.14,-40.99 -31.22,-67.69 -56.77,-89.46 -25.7,-21.91 -95.16,-15.09 -139.29,-13.91 -68.41,1.83 -131.78,85.09 -152.71,143.24z"/>
   <path class="fil18" d="M2617.93 1541.62c-98.98,38.01 -87.77,298.4 13.52,254.04 93.38,-40.89 83.86,-291.44 -13.52,-254.04z"/>
   <path class="fil1" d="M2074.86 4722.1c80.24,84.73 39.77,14.44 94.49,124.8 9.19,18.53 2.5,5.99 7.9,13.82l203.15 19.38c-33.82,-173.87 -163.43,-166.46 -305.55,-158.01z"/>
   <path class="fil1" d="M1833.6 4754.54c15.51,15.29 18.02,13.13 44.09,24.44 43.27,18.78 78.76,51.03 88.49,100.88l172.45 -20.93c7.49,-49.13 -59.69,-102.18 -100.04,-118.91 -59.09,-24.49 -145.18,3.98 -204.99,14.51z"/>
   <path class="fil1" d="M2564.45 4938.77c-4.66,-57.25 -27.98,-98.55 -68.83,-119.98 -37.88,-19.86 -92.55,-49.51 -137.42,-56.72l19.23 32.85c32.44,55.81 19.93,85.29 43.32,98.33 0.76,0.42 137.56,44.02 143.71,45.52z"/>
   <path class="fil1" d="M4476.6 5374.04l169.78 34.64c-15.68,-52.43 -19.01,-75.16 -73.78,-96.35 -43.52,-16.84 -95.66,-28.32 -147.01,-35.98 11.88,23.58 16.73,22.9 29.11,45.33 9.41,17.04 13.49,36.9 21.9,52.36z"/>
   <path class="fil1" d="M2707.91 5023.57c-13.08,-54.43 -89.9,-125.69 -128.7,-150.43 3.69,20.48 7.75,35.46 11.71,53.65 10.62,48.81 2.59,23.33 69.33,66.38 19.91,12.85 26.24,20.14 47.66,30.4z"/>
  </g>
 </g>
</svg>
