<?xml version="1.0" encoding="UTF-8"?>
<!DOCTYPE svg PUBLIC "-//W3C//DTD SVG 1.1//EN" "http://www.w3.org/Graphics/SVG/1.1/DTD/svg11.dtd">
<!-- Creator: CorelDRAW -->
<svg xmlns="http://www.w3.org/2000/svg" xml:space="preserve" width="16.9333mm" height="17.1341mm" version="1.1" style="shape-rendering:geometricPrecision; text-rendering:geometricPrecision; image-rendering:optimizeQuality; fill-rule:evenodd; clip-rule:evenodd"
viewBox="0 0 51.9 52.51"
 xmlns:xlink="http://www.w3.org/1999/xlink"
 xmlns:xodm="http://www.corel.com/coreldraw/odm/2003">
 <defs>
  <style type="text/css">
   <![CDATA[
    .fil0 {fill:#FD6268}
   ]]>
  </style>
 </defs>
 <g id="Camada_x0020_1">
  <metadata id="CorelCorpID_0Corel-Layer"/>
  <g id="_1697792319456">
   <path class="fil0" d="M21.03 13.03l0 19.59c5.43,1.26 11.04,3.71 15.26,6.28 0.28,0.17 0.48,0.3 0.77,0.46 0.59,0.32 1.08,0.63 1.61,0.95l7.87 4.95c0.41,0.26 1.18,0.8 1.76,0.8 1.61,0 3.59,-1.37 3.59,-3.38l0 -39.38c0,-2.08 -1.78,-3.28 -3.69,-3.28 -0.7,0 -2.91,1.17 -3.52,1.51l-3.23 1.8c-1.43,0.87 -6.41,3.76 -7.98,4.53 -0.61,0.3 -1.08,0.59 -1.68,0.89 -0.55,0.27 -1.09,0.55 -1.64,0.82 -2.12,1.06 -4.85,2.2 -7.11,2.94 -0.46,0.15 -1.6,0.52 -2.01,0.55z"/>
   <path class="fil0" d="M-0 22.87c0,5.21 4.3,9.44 9.54,9.44l8 0c0,-1.25 0.1,-2.12 0.1,-3.38l-0.1 -15.49 -7.9 0c-5.46,0 -9.64,4.36 -9.64,9.44z"/>
   <path class="fil0" d="M20.51 52.51l0.02 0c0.52,-0 0.81,-0.03 1.18,-0.54 0.31,-0.42 0.73,-3.01 0.86,-3.66 0.54,-2.73 -0.76,-1.2 -2.95,-5.58 -0.94,-1.88 -1.43,-3.54 -1.78,-5.61 -0.07,-0.43 -0.11,-0.92 -0.2,-1.33l-6.15 0c0,0.81 0.27,2.05 0.4,2.78 0.16,0.94 0.4,1.75 0.61,2.57 0.21,0.83 0.51,1.59 0.81,2.37l1.59 3.23c0.71,1.17 1.17,1.79 2.06,2.86 0.49,0.58 2.79,2.9 3.56,2.9z"/>
  </g>
 </g>
</svg>
