<?xml version="1.0" encoding="UTF-8"?>
<!DOCTYPE svg PUBLIC "-//W3C//DTD SVG 1.1//EN" "http://www.w3.org/Graphics/SVG/1.1/DTD/svg11.dtd">
<!-- Creator: CorelDRAW -->
<svg xmlns="http://www.w3.org/2000/svg" xml:space="preserve" width="16.9333mm" height="13.4965mm" version="1.1" style="shape-rendering:geometricPrecision; text-rendering:geometricPrecision; image-rendering:optimizeQuality; fill-rule:evenodd; clip-rule:evenodd"
viewBox="0 0 82.97 66.13"
 xmlns:xlink="http://www.w3.org/1999/xlink"
 xmlns:xodm="http://www.corel.com/coreldraw/odm/2003">
 <defs>
  <style type="text/css">
   <![CDATA[
    .fil0 {fill:#FEFEFE}
   ]]>
  </style>
 </defs>
 <g id="Camada_x0020_1">
  <metadata id="CorelCorpID_0Corel-Layer"/>
  <g id="_1697792479648">
   <path class="fil0" d="M11.83 38.1l0 24.8c0,1.68 1.56,3.24 3.24,3.24l19.93 0 0 -19.77 12.96 0 0 19.77 19.93 0c1.78,0 3.24,-1.82 3.24,-2.92l0 -25.12c0,-0.56 -3.06,-2.85 -3.47,-3.17 -2.93,-2.29 -6.32,-5.34 -9.33,-7.69l-15.81 -13.03c-1.49,-1.19 -0.65,-1.12 -4.75,2.2 -5.52,4.47 -11.36,9.51 -16.81,13.82 -0.66,0.53 -1.22,1.06 -1.85,1.55l-6.49 5.35c-0.28,0.21 -0.81,0.51 -0.81,0.97z"/>
   <path class="fil0" d="M-0 33.4c0,1.07 1.12,2.16 1.99,3.19 2.9,3.42 2.63,3.12 7.68,-1.14 0.77,-0.65 1.46,-1.19 2.2,-1.85 3.93,-3.5 9.65,-7.82 13.61,-11.34l16 -13.33c0.39,0.26 0.62,0.53 1.07,0.88l18.11 15.11c0.41,0.35 0.74,0.62 1.15,0.95l9.03 7.5c0.38,0.3 0.77,0.63 1.15,0.96 0.42,0.37 0.72,0.59 1.14,0.97l3.45 2.87c1.2,0.96 1.92,1.16 3.19,-0.19 0.31,-0.33 0.33,-0.4 0.58,-0.72 0.23,-0.28 0.38,-0.39 0.62,-0.67 0.4,-0.48 0.7,-0.84 1.09,-1.34 0.54,-0.69 0.83,-1.21 0.9,-1.66l0 -0.43c-0.15,-0.86 -1.18,-1.53 -2.78,-2.82l-7.96 -6.63c-0.8,-0.71 -1.11,-0.41 -1.1,-1.81l-0 -20.42c-0.11,-0.71 -0.78,-1.31 -1.61,-1.31l-10.05 0c-1.99,0 -1.62,2.83 -1.62,4.86 0,2.21 0,4.43 0,6.64 -0.38,-0.26 -0.56,-0.36 -0.93,-0.69 -0.39,-0.35 -0.6,-0.47 -0.97,-0.81 -0.63,-0.58 -1.19,-1.02 -1.85,-1.56 -1.45,-1.17 -8.58,-7.32 -9.51,-7.83 -2.19,-1.2 -4.75,-1.02 -6.81,0.38l-22.91 19.06c-3.87,3.37 -9.09,7.37 -12.72,10.61 -0.68,0.6 -2.15,1.45 -2.15,2.55z"/>
  </g>
 </g>
</svg>
