<?xml version="1.0" encoding="UTF-8"?>
<!DOCTYPE svg PUBLIC "-//W3C//DTD SVG 1.1//EN" "http://www.w3.org/Graphics/SVG/1.1/DTD/svg11.dtd">
<!-- Creator: CorelDRAW -->
<svg xmlns="http://www.w3.org/2000/svg" xml:space="preserve" width="16.9333mm" height="16.9686mm" version="1.1" style="shape-rendering:geometricPrecision; text-rendering:geometricPrecision; image-rendering:optimizeQuality; fill-rule:evenodd; clip-rule:evenodd"
viewBox="0 0 46.94 47.03"
 xmlns:xlink="http://www.w3.org/1999/xlink"
 xmlns:xodm="http://www.corel.com/coreldraw/odm/2003">
 <defs>
  <style type="text/css">
   <![CDATA[
    .fil0 {fill:#FD6268}
   ]]>
  </style>
 </defs>
 <g id="Camada_x0020_1">
  <metadata id="CorelCorpID_0Corel-Layer"/>
  <g id="_1697384456272">
   <path class="fil0" d="M6.09 15.39c0,0.55 0.48,0.95 0.89,1.1 0.69,0.24 2.2,-0.88 5.15,-0.88 3.1,0 5.08,0.21 7.8,1.43 0.84,0.38 1.72,0.85 2.49,1.36 0.95,0.63 2.35,1.75 3.06,2.66 1.14,1.47 1.3,1.42 2.34,3.49 1.68,3.37 1.83,6.91 0.83,10.54 -0.69,2.5 -2.27,3.71 -0.6,4.72 0.47,0.28 0.83,0.5 1.31,0.78l5.08 3.05c0.75,0.45 1.88,1.31 2.86,1.31 0.93,0 1.77,-0.67 2.09,-1.31 0.57,-1.12 -0.12,-4.46 -0.3,-5.86l-0.36 -3.04c0.33,-0.18 0.62,-0.38 0.9,-0.63 3.99,-3.51 6.47,-7.04 7.2,-12.8 0.51,-4 -0.77,-9.05 -3.08,-12.25 -1.84,-2.55 -3.61,-4.32 -6.42,-6 -3.22,-1.93 -7.05,-2.91 -10.91,-3.05l-4.21 0.42c-3.24,0.63 -6.16,1.8 -8.7,3.72l-2.51 2.1c-1.49,1.57 -2.19,2.68 -3.27,4.53 -0.47,0.81 -1.64,3.42 -1.64,4.62z"/>
   <path class="fil0" d="M5.1 40.55c0,1.81 -0.44,3.47 -0.44,5.27 0,0.51 0.89,1.21 1.43,1.21 1.03,0 5.96,-3.83 7.47,-3.85 2.5,-0.03 5.07,-1.02 7.04,-2.41 0.43,-0.3 0.69,-0.58 1.08,-0.9 1.34,-1.08 2.53,-2.75 3.24,-4.34 3.47,-7.72 -2.97,-16.52 -12.02,-16.52 -1.61,0 -2.98,0.32 -4.26,0.68l-2.5 1.12c-2.39,1.44 -4.25,3.17 -5.34,5.87 -1.61,3.99 -0.73,9.11 2.24,12.08l1.27 1.25c0.24,0.2 0.5,0.46 0.79,0.53z"/>
  </g>
 </g>
</svg>
