<?xml version="1.0" encoding="UTF-8"?>
<!DOCTYPE svg PUBLIC "-//W3C//DTD SVG 1.1//EN" "http://www.w3.org/Graphics/SVG/1.1/DTD/svg11.dtd">
<!-- Creator: CorelDRAW -->
<svg xmlns="http://www.w3.org/2000/svg" xml:space="preserve" width="16.9333mm" height="14.4198mm" version="1.1" style="shape-rendering:geometricPrecision; text-rendering:geometricPrecision; image-rendering:optimizeQuality; fill-rule:evenodd; clip-rule:evenodd"
viewBox="0 0 73.77 62.82"
 xmlns:xlink="http://www.w3.org/1999/xlink"
 xmlns:xodm="http://www.corel.com/coreldraw/odm/2003">
 <defs>
  <style type="text/css">
   <![CDATA[
    .fil0 {fill:#FEFEFE}
   ]]>
  </style>
 </defs>
 <g id="Camada_x0020_1">
  <metadata id="CorelCorpID_0Corel-Layer"/>
  <g id="_1697487154544">
   <path class="fil0" d="M36.88 62.82c4.53,0 9.76,-0.45 14.03,-1.53 0.72,-0.18 1.08,-0.33 1.78,-0.52 2.24,-0.62 7.82,-3.37 8.09,-5.31 0.13,-0.97 -0.14,-3.03 -0.13,-4.46 0.01,-2.8 -0.36,-5.74 -0.88,-8.06 -1.9,-8.56 -9.17,-9.52 -15.98,-11.1 -0.46,0.69 -1.69,1.37 -2.54,1.78 -2.3,1.11 -6.45,1.11 -8.75,0 -0.85,-0.41 -2.08,-1.09 -2.54,-1.78 -4.4,1.02 -10.85,2.02 -13.83,6.19 -0.25,0.35 -0.71,0.99 -0.9,1.4 -0.48,1.01 -0.93,2.06 -1.2,3.27 -0.53,2.45 -0.94,5.57 -0.92,8.15 0.02,4.01 -1.19,4.54 1.79,6.86 1.48,1.15 4.01,2.45 6.05,3.02 5.47,1.54 9.9,2.08 15.93,2.08z"/>
   <path class="fil0" d="M24.2 15.7c0,1.84 0.54,4.45 1.07,5.85 0.33,0.88 0.7,1.61 1.09,2.37 1.08,2.07 3.01,4.15 5.05,5.32 1.53,0.88 3,1.42 5.37,1.51 3.89,0.15 7.37,-2.33 9.12,-4.59 1.08,-1.39 1.83,-2.68 2.51,-4.4 2.01,-5.05 1.34,-13.87 -1.42,-17.6 -2.32,-3.14 -6.04,-4.15 -10.11,-4.15 -10.33,0 -12.68,6.32 -12.68,15.7z"/>
   <path class="fil0" d="M9.08 14.55c0,4.87 1.3,8.6 4.36,11.2 1.17,0.99 3.05,2.07 5.01,2.2 2.42,0.16 3.58,-0.22 5.61,-1.3 -0.86,-1.63 -1.58,-2.92 -2.18,-4.88 -0.6,-1.94 -0.88,-4.18 -0.99,-6.22 -0.04,-0.76 0.09,-1.02 0.14,-1.59 0.16,-1.93 -0.2,-1.91 0.4,-5.08 0.19,-0.99 0.46,-2.03 0.74,-2.86l1.03 -2.57c-0.63,-0.01 -2.43,-0.43 -4.18,-0.43 -7.58,0 -9.94,5.06 -9.94,11.53z"/>
   <path class="fil0" d="M50.57 3.46c0.17,0.71 1.08,2.01 1.75,5.31 0.52,2.57 0.35,2.78 0.41,4.92 0.02,0.75 0.18,0.9 0.16,1.72 -0.05,1.76 -0.47,4.57 -0.97,6.25 -0.59,2.01 -1.35,3.35 -2.21,4.99 8.47,4.48 14.98,-3.32 14.98,-10.95 0,-3.46 -0.24,-6.84 -2.26,-9.55 -1.45,-1.95 -4.33,-3.13 -7.68,-3.13 -1.75,0 -3.55,0.42 -4.18,0.43z"/>
   <path class="fil0" d="M54.03 30.98c0.16,0.45 -0.03,0.17 0.42,0.44 0.17,0.1 0.44,0.21 0.68,0.33 2.84,1.39 5.49,4.05 6.7,6.99 1.89,4.61 2.14,9.31 2.14,14.43 2.37,-0.05 9.8,-2.97 9.8,-5.19 0,-3.73 -0.06,-7.18 -0.83,-10.41 -1.32,-5.53 -5.94,-7.26 -11.26,-8.34 -2.63,-0.53 -0.86,-0.35 -3.42,0.93 -1.4,0.7 -2.2,0.81 -4.23,0.81z"/>
   <path class="fil0" d="M-0 46.54l0 1.44c0,2.22 7.43,5.13 9.8,5.19 0,-2.97 0.08,-5.47 0.49,-8.3 0.48,-3.29 1.21,-5.96 3.05,-8.62 1.21,-1.75 3.27,-3.51 5.2,-4.46 1.04,-0.51 1.03,-0.33 1.2,-0.82 -5.22,0 -5.1,-2.1 -6.44,-1.99 -1.98,0.16 -6.69,1.66 -8.34,2.77 -2.18,1.46 -3.4,2.98 -4.09,5.7 -0.65,2.56 -0.86,5.87 -0.86,9.08z"/>
  </g>
 </g>
</svg>
