<?xml version="1.0" encoding="UTF-8"?>
<!DOCTYPE svg PUBLIC "-//W3C//DTD SVG 1.1//EN" "http://www.w3.org/Graphics/SVG/1.1/DTD/svg11.dtd">
<!-- Creator: CorelDRAW -->
<svg xmlns="http://www.w3.org/2000/svg" xml:space="preserve" width="16.9333mm" height="13.9898mm" version="1.1" style="shape-rendering:geometricPrecision; text-rendering:geometricPrecision; image-rendering:optimizeQuality; fill-rule:evenodd; clip-rule:evenodd"
viewBox="0 0 66.7 55.1"
 xmlns:xlink="http://www.w3.org/1999/xlink"
 xmlns:xodm="http://www.corel.com/coreldraw/odm/2003">
 <defs>
  <style type="text/css">
   <![CDATA[
    .fil0 {fill:#FEFEFE}
   ]]>
  </style>
 </defs>
 <g id="Camada_x0020_1">
  <metadata id="CorelCorpID_0Corel-Layer"/>
  <g id="_1697487485376">
   <path class="fil0" d="M-0 48.72c0,1.91 1.15,3.68 2.18,4.59 1.24,1.09 2.69,1.79 4.98,1.79l52.37 0c4.08,0 7.17,-2.97 7.17,-6.38l0 -22.28 -22.02 0c-1.07,0 0.66,3.38 -2.05,6.42 -1.32,1.48 -3.13,2.57 -5.89,2.57l-6.77 0c-2.76,0 -4.57,-1.09 -5.89,-2.57 -2.72,-3.04 -0.97,-6.42 -2.05,-6.42l-22.02 0 0 22.28z"/>
   <path class="fil0" d="M25.14 5.47c0,-0.63 0.36,-1.43 0.91,-1.43l14.59 0c0.55,0 0.91,0.81 0.91,1.43l0 4.56 -16.41 0 0 -4.56zm-4.04 0.65l0 3.91 -14.98 0c-0.85,0 -1.77,0.37 -2.35,0.65 -1.3,0.64 -1.63,1.06 -2.51,2.05 -0.29,0.33 -0.37,0.57 -0.58,0.99 -0.32,0.64 -0.69,1.54 -0.69,2.43l0 6.38 66.7 0 0 -6.38c0,-2.08 -1.28,-3.61 -2.7,-4.85 -0.62,-0.55 -2.4,-1.27 -3.42,-1.27l-14.98 0c0,-4.46 0.61,-7.24 -2.63,-9.36 -0.43,-0.28 -1.4,-0.67 -2.06,-0.67l-15.11 0c-0.59,0 -1.59,0.37 -1.98,0.62 -2.01,1.28 -2.71,2.66 -2.71,5.5z"/>
   <path class="fil0" d="M26.18 26.84c0,2.46 0.65,4.69 3.52,4.69l7.29 0c2.85,0 3.52,-2.21 3.52,-4.69 0,-0.3 -0.09,-0.39 -0.39,-0.39l-13.55 0c-0.3,0 -0.39,0.09 -0.39,0.39z"/>
  </g>
 </g>
</svg>
